<mxfile host="app.diagrams.net" modified="2024-05-21T19:16:39.582Z" agent="Mozilla/5.0 (Windows NT 10.0; Win64; x64) AppleWebKit/537.36 (KHTML, like Gecko) Chrome/125.0.0.0 Safari/537.36" etag="yWawE06M3-7eML4W_lOn" version="24.4.4" type="device">
  <diagram name="Page-1" id="vdwSGZ5QNjB49AX89OL0">
    <mxGraphModel dx="2440" dy="1404" grid="1" gridSize="10" guides="1" tooltips="1" connect="1" arrows="1" fold="1" page="1" pageScale="1" pageWidth="850" pageHeight="1100" background="none" math="0" shadow="0">
      <root>
        <mxCell id="0" />
        <mxCell id="1" parent="0" />
        <mxCell id="el2C2z39i963WL26IB6a-1" value="" style="shape=image;verticalLabelPosition=bottom;labelBackgroundColor=default;verticalAlign=top;aspect=fixed;imageAspect=0;image=data:image/png,iVBORw0KGgoAAAANSUhEUgAABGEAAAJaCAYAAACP/VpmAAAAOXRFWHRTb2Z0d2FyZQBNYXRwbG90bGliIHZlcnNpb24zLjguMywgaHR0cHM6Ly9tYXRwbG90bGliLm9yZy/H5lhTAAAACXBIWXMAAA9hAAAPYQGoP6dpAACSEklEQVR4nOzdeXwN9/7H8feRfQ8RWSoSKpIgdrXW1lSidlprS2jRltq76EKkre3aa+2WaC+tVkt149qiitpaWy8pKaU/EdTWUAnJ+f3hkXMdCRJijsjr+Xicx8P5zsx3PjNngvPOd75jMpvNZgEAAAAAAOCuKmHrAgAAAAAAAIoDQhgAAAAAAAADEMIAAAAAAAAYgBAGAAAAAADAAIQwAAAAAAAABiCEAQAAAAAAMAAhDAAAAAAAgAEIYQAAAAAAAAxACAMAAAAAAGAAQhgAAAAAAAADEMIAAAAAAAAYgBAGAAAAAADAAIQwAAAAAAAABiCEAQAAAAAAMAAhDAAABjGZTIqLi7N1GXfs448/Vnh4uBwcHOTt7W3rcgrk8OHDMplMmjx5sq1LKTRJSUkymUxKSkqydSl3VWxsrEJCQgzbX2Jiokwmkw4fPmzYPgEA9z9CGACAYVJSUjRgwABVqFBBzs7O8vT0VKNGjTRjxgz9888/ti4P+bB//37FxsbqwQcf1Hvvvad33333huvGxcXJZDJZXg4ODgoJCdHgwYN19uzZXOuHhIRYre/m5qaHHnpIH330kaT/BSj5ednyi3O7du3k6uqqv//++4br9OzZU46Ojvrrr78MrMx2Ll26pGnTpqlevXry8vKSs7OzKlWqpEGDBum33367rT4vXryouLi4+z58AgDcX+xtXQAAoHj49ttv9cQTT8jJyUm9evVS1apVlZmZqR9//FEvvviifv3115t+ob8f/PPPP7K3L9r/9CYlJSk7O1szZsxQxYoV87XN3Llz5e7urgsXLmjNmjV655139PPPP+vHH3/MtW6NGjU0YsQISVJqaqref/999e7dWxkZGerRo4c+/vhjq/WnTJmiP//8U9OmTbNq9/X1vc0jvHM9e/bU119/raVLl6pXr165ll+8eFFfffWVYmJi5OPjc8f7a9Kkif755x85OjrecV93w6lTpxQTE6MdO3aoTZs26tGjh9zd3ZWcnKxPP/1U7777rjIzM2/Zz3vvvafs7GzL+4sXL2rs2LGSpGbNmhV63U899ZS6desmJyenQu8bAFB8Fe3/CQIAioRDhw6pW7duCg4O1tq1axUQEGBZNnDgQB08eFDffvutDSu8e7Kzs5WZmSlnZ2c5Ozvbupw7duLECUkq0G1Ijz/+uEqXLi1JGjBggLp166bFixdr69ateuihh6zWfeCBB/Tkk09a3sfGxqpChQqaNm2a+vXrZ7VMkj799FOdOXMmV7sttWvXTh4eHlq0aFGeIcxXX32lCxcuqGfPnne0n0uXLsnR0VElSpS4p6+t2NhY/fLLL1qyZIk6d+5stezNN9/Ua6+9dtPtL1y4IDc3Nzk4ONzNMnPtz87OTnZ2dobsEwBQfHA7EgDgrps0aZLS09P1wQcfWAUwOSpWrKghQ4ZY3l+5ckVvvvmmHnzwQTk5OSkkJESvvvqqMjIyrLYLCQlRmzZtlJSUpDp16sjFxUWRkZGW2xO+/PJLRUZGytnZWbVr19Yvv/xitX1sbKzc3d31+++/Kzo6Wm5ubgoMDFR8fLzMZrPVupMnT1bDhg3l4+MjFxcX1a5dW0uWLMl1LCaTSYMGDdLChQtVpUoVOTk5acWKFZZl184J8/fff2vo0KEKCQmRk5OTypQpo0cffVQ///yzVZ+ff/65ateuLRcXF5UuXVpPPvmk/u///i/PY/m///s/dejQQe7u7vL19dXIkSOVlZV1g0/G2pw5cyw1BwYGauDAgVa3DYWEhGjMmDGSro40ud05bh5++GFJV29PuxVfX1+Fh4fna92CmjZtmoKDg+Xi4qKmTZtq7969lmUJCQkymUy5rhlJGjdunOzs7HJ9BjlcXFzUqVMnrVmzxhJaXWvRokXy8PBQu3btdPr0aY0cOVKRkZFyd3eXp6enWrVqpV27dlltkzPvy6effqrXX39dDzzwgFxdXXX+/PkbzgmTn+umWbNmeY4iyWv+lU8//VS1a9eWh4eHPD09FRkZqRkzZuR5DnJs2bJF3377rZ5++ulcAYwkOTk5Wc3Pk3Mdp6Sk6LHHHpOHh4clrLq2psOHD1tGO40dO9ZyG9q11+P+/fv1+OOPq1SpUnJ2dladOnW0fPlyq/3nzPuyfv16Pf/88ypTpozKli1rtezaW9u++uortW7dWoGBgXJyctKDDz6oN998M98/YwAAEMIAAO66r7/+WhUqVFDDhg3ztf4zzzyj0aNHq1atWpo2bZqaNm2q8ePHq1u3brnWPXjwoHr06KG2bdtq/PjxOnPmjNq2bauFCxdq2LBhevLJJzV27FilpKSoS5cuVrczSFJWVpZiYmLk5+enSZMmqXbt2hozZowlbMgxY8YM1axZU/Hx8Ro3bpzs7e31xBNP5DmCZ+3atRo2bJi6du2qGTNm3HAy0WeffVZz585V586dNWfOHI0cOVIuLi7at2+fZZ3ExER16dJFdnZ2Gj9+vPr166cvv/xSjRs3zjWvSlZWlqKjo+Xj46PJkyeradOmmjJlSr5u84qLi9PAgQMVGBioKVOmqHPnzpo/f75atmypy5cvS5KmT5+ujh07Srp6i9HHH3+sTp063bLv6+V8qS1ZsuQt171y5Yr+/PPPfK1bEB999JFmzpypgQMHatSoUdq7d69atGihtLQ0SVdH77i4uGjhwoW5tl24cKGaNWumBx544Ib99+zZU1euXNFnn31m1X769GmtXLlSHTt2lIuLi37//XctW7ZMbdq00dSpU/Xiiy9qz549atq0qY4dO5ar3zfffFPffvutRo4cqXHjxt3wFqSCXDf5sWrVKnXv3l0lS5bUxIkTNWHCBDVr1kwbN2686XY5ocdTTz2V731duXJF0dHRKlOmjCZPnpxneOPr66u5c+dKkjp27KiPP/7Y6nr89ddfVb9+fe3bt0+vvPKKpkyZIjc3N3Xo0EFLly7N1d/zzz+v//73vxo9erReeeWVG9aWmJgod3d3DR8+XDNmzFDt2rVvuQ0AAFbMAADcRefOnTNLMrdv3z5f6+/cudMsyfzMM89YtY8cOdIsybx27VpLW3BwsFmSedOmTZa2lStXmiWZXVxczH/88Yelff78+WZJ5nXr1lnaevfubZZkfuGFFyxt2dnZ5tatW5sdHR3NJ0+etLRfvHjRqp7MzExz1apVzS1atLBql2QuUaKE+ddff811bJLMY8aMsbz38vIyDxw48IbnIjMz01ymTBlz1apVzf/884+l/ZtvvjFLMo8ePTrXscTHx1v1UbNmTXPt2rVvuA+z2Ww+ceKE2dHR0dyyZUtzVlaWpX3WrFlmSeYPP/zQ0jZmzBizJKtzcyM56yYnJ5tPnjxpPnz4sPnDDz80u7i4mH19fc0XLlywWj84ONjcsmVL88mTJ80nT54079mzx/zUU0+ZJd3wPLVu3docHBx8y1pyHDp0yHJ9/Pnnn5b2LVu2mCWZhw0bZmnr3r27OTAw0Oqc/Pzzz2ZJ5oSEhJvu58qVK+aAgABzgwYNrNrnzZtnlmReuXKl2Ww2my9dumTVf06NTk5OVp/lunXrzJLMFSpUyHUt5izLubYLct00bdrU3LRp01z19+7d2+q8DhkyxOzp6Wm+cuXKTY/7eh07djRLMp85cyZf6+dcx6+88sotazp58mSun6kcjzzyiDkyMtJ86dIlS1t2dra5YcOG5tDQUEtbQkKCWZK5cePGuY4tZ9mhQ4csbdefe7PZbB4wYIDZ1dXVal8AANwII2EAAHfV+fPnJUkeHh75Wv+7776TJA0fPtyqPWey1utHnlSuXFkNGjSwvK9Xr54kqUWLFipXrlyu9t9//z3XPgcNGmT5c87tRJmZmVq9erWl3cXFxfLnM2fO6Ny5c3r44Ydz3TokSU2bNlXlypVvcaRX51XZsmVLniMeJGn79u06ceKEnn/+eas5P1q3bq3w8PA8R+E8++yzVu8ffvjhPI/5WqtXr1ZmZqaGDh2qEiX+91+Dfv36ydPT847n6wkLC5Ovr69CQkLUt29fVaxYUd9//71cXV1zrfuf//xHvr6+8vX1VWRkpD7++GP16dNH//rXv+6ohut16NDBaiTLQw89pHr16lmuP0nq1auXjh07pnXr1lnaFi5cKBcXlzxHZ1zLzs5O3bp10+bNm61uZ1m0aJH8/Pz0yCOPSLp6O07OOc/KytJff/0ld3d3hYWF5Xlt9e7d2+pazMvtXDe34u3trQsXLmjVqlUF2q6gP/85nnvuuQKtf63Tp09r7dq16tKli/7++2+dOnVKp06d0l9//aXo6GgdOHAg121Z/fr1y9f8L9ee+5y+H374YV28eFH79++/7ZoBAMUHIQwA4K7y9PSUpJs+rvdaf/zxh0qUKJHryTv+/v7y9vbWH3/8YdV+bdAiSV5eXpKkoKCgPNvPnDlj1V6iRAlVqFDBqq1SpUqSZPXl+ZtvvlH9+vXl7OysUqVKWW6HOHfuXK5jKF++/K0OU9LVuXL27t2roKAgPfTQQ4qLi7MKTHKONSwsLNe24eHhuc6Fs7NzrqcClSxZMtcxX+9G+3F0dFSFChVy7aegvvjiC61atUqLFi1S/fr1deLEiRsGCfXq1dOqVau0YsUKTZ48Wd7e3jpz5kyhP/knNDQ0V1ulSpWsPvNHH31UAQEBlluSsrOz9cknn6h9+/b5ChVy5jJZtGiRJOnPP//Uhg0b1K1bN8sX/uzsbE2bNk2hoaFycnJS6dKl5evrq927d9/2tVXQ6yY/nn/+eVWqVEmtWrVS2bJl1bdvX8tcRzdT0J9/SbK3t7fMy3I7Dh48KLPZrDfeeMMS6OW8cm4zvH6unvz+zP7666/q2LGjvLy85OnpKV9fX8uk0Hl9XgAAXI8QBgBwV3l6eiowMNBq0tP8MJlM+VrvRr+9vlG7+boJd/Njw4YNateunZydnTVnzhx99913WrVqlXr06JFnf7caqZCjS5cu+v333/XOO+8oMDBQ//rXv1SlShV9//33Ba5RuvEx21qTJk0UFRWl7t27a9WqVXJxcVHPnj1zzc8jSaVLl1ZUVJSio6M1YsQI/fvf/9ayZctuOQHs3WBnZ6cePXroiy++0KVLl7Ru3TodO3Ys309iql27tsLDw/XJJ59Ikj755BOZzWarpyKNGzdOw4cPV5MmTfTvf/9bK1eu1KpVq1SlSpU8z09+r638utHP2fUTzZYpU0Y7d+7U8uXL1a5dO61bt06tWrVS7969b9p/eHi4JGnPnj35runa0UG3I+e8jRw5UqtWrcrzdX3Im5/zevbsWTVt2lS7du1SfHy8vv76a61atUoTJ0602i8AADdDCAMAuOvatGmjlJQUbd68+ZbrBgcHKzs7WwcOHLBqT0tL09mzZxUcHFyotWVnZ+e6Xee3336TJMuEul988YWcnZ21cuVK9e3bV61atVJUVFSh7D8gIEDPP/+8li1bpkOHDsnHx0dvv/22JFmONTk5Odd2ycnJhXYubrSfzMxMHTp0qFDPubu7u8aMGaOdO3fmmrQ2L61bt1bTpk01btw4XbhwodDquP76kq5+7tdPotyrVy+dP39eX3/9tRYuXChfX19FR0fnez89e/bU3r17tXv3bi1atEihoaGqW7euZfmSJUvUvHlzffDBB+rWrZtatmypqKio25o8N0dBrpuSJUvmua+8Rss4Ojqqbdu2mjNnjlJSUjRgwAB99NFHOnjw4A1radu2rSTp3//+d0EP45ZuFCDljGxzcHBQVFRUnq+C3h4lXX1C1V9//aXExEQNGTJEbdq0UVRUVKFPGg0AuL8RwgAA7rqXXnpJbm5ueuaZZyxPn7lWSkqKZaTDY489Junqk3iuNXXqVElXv5QXtlmzZln+bDabNWvWLDk4OFjm7bCzs5PJZLIaHXD48GEtW7bstveZlZWV6/aFMmXKKDAw0PIo7jp16qhMmTKaN2+e1eO5v//+e+3bt6/QzkVUVJQcHR01c+ZMq5E9H3zwgc6dO1fo57xnz54qW7asZQTBrbz88sv666+/9N577xVaDcuWLbOaF2Tr1q3asmWLWrVqZbVetWrVVK1aNb3//vv64osv1K1bN9nb2+d7PzmjXkaPHq2dO3dajYKRrl5b14+m+vzzz2/4+Ov8KMh18+CDD2r//v06efKkpW3Xrl25nnr0119/Wb0vUaKEqlWrJkm5Hh1/rQYNGigmJkbvv/9+nj8vmZmZGjlyZIGOL0fOnELXh0hlypRRs2bNNH/+fKWmpuba7tpjLYickWbXfl6ZmZmaM2fObfUHACie8v+/CAAAbtODDz6oRYsWqWvXroqIiFCvXr1UtWpVZWZmatOmTfr8888VGxsrSapevbp69+6td9991zL8f+vWrVqwYIE6dOig5s2bF2ptzs7OWrFihXr37q169erp+++/17fffqtXX33VMr9K69atNXXqVMXExKhHjx46ceKEZs+erYoVK2r37t23td+///5bZcuW1eOPP67q1avL3d1dq1ev1rZt2zRlyhRJV3+TP3HiRPXp00dNmzZV9+7dlZaWZnns9bBhwwrlHPj6+mrUqFEaO3asYmJi1K5dOyUnJ2vOnDmqW7duvm+/yS8HBwcNGTJEL774olasWKGYmJibrt+qVStVrVpVU6dO1cCBA+Xg4HDHNVSsWFGNGzfWc889p4yMDE2fPl0+Pj566aWXcq3bq1cvS1BQ0HNRvnx5NWzYUF999ZUk5Qph2rRpo/j4ePXp00cNGzbUnj17tHDhwlzzFBVEQa6bvn37aurUqYqOjtbTTz+tEydOaN68eapSpYplUl3p6mPjT58+rRYtWqhs2bL6448/9M4776hGjRqKiIi4aT0fffSRWrZsqU6dOqlt27Z65JFH5ObmpgMHDujTTz9VamqqJk+eXODjdHFxUeXKlbV48WJVqlRJpUqVUtWqVVW1alXNnj1bjRs3VmRkpPr166cKFSooLS1Nmzdv1p9//qldu3YVeH8NGzZUyZIl1bt3bw0ePFgmk0kff/zxbd3iCAAoxmz2XCYAQLHz22+/mfv162cOCQkxOzo6mj08PMyNGjUyv/POO1aPd718+bJ57Nix5vLly5sdHBzMQUFB5lGjRuV6BGxwcLC5devWufajPB5pnPNo4n/961+Wtt69e5vd3NzMKSkp5pYtW5pdXV3Nfn5+5jFjxuR6bPAHH3xgDg0NNTs5OZnDw8PNCQkJlkcw32rf1y7LeZxuRkaG+cUXXzRXr17d7OHhYXZzczNXr17dPGfOnFzbLV682FyzZk2zk5OTuVSpUuaePXtaPV752mO5Xl413sisWbPM4eHhZgcHB7Ofn5/5ueeey/Vo4dt5RHVe6547d87s5eVl9XjkG32eZrPZnJiYmOejoW/3EdX/+te/zFOmTDEHBQWZnZyczA8//LB5165deW6TmppqtrOzM1eqVCnf+7nW7NmzzZLMDz30UK5lly5dMo8YMcIcEBBgdnFxMTdq1Mi8efPmXI+OznkM9eeff56rj+sfUZ0jP9eN2Ww2//vf/zZXqFDB7OjoaK5Ro4Z55cqVuR4HvWTJEnPLli3NZcqUMTs6OprLlStnHjBggDk1NTVf5+DixYvmyZMnm+vWrWt2d3c3Ozo6mkNDQ80vvPCC+eDBg5b1bnQd5yy7/rPetGmTuXbt2mZHR8dcj6tOSUkx9+rVy+zv7292cHAwP/DAA+Y2bdqYlyxZYlkn5zHU27Zty7W/vB5RvXHjRnP9+vXNLi4u5sDAQPNLL71kXrlyZZ7nHwCAvJjMZuJ7AEDxFBsbqyVLlig9Pd3WpeAedurUKQUEBGj06NF64403bF0OAAAowpgTBgAA4CYSExOVlZWlp556ytalAACAIo45YQAAAPKwdu1a/fe//9Xbb7+tDh065HpyEgAAQEERwgAAAOQhPj5emzZtUqNGjfTOO+/YuhwAAHAfYE4YAAAAAAAAAzAnDAAAAAAAgAEIYQAAAAAAAAzAnDB3SXZ2to4dOyYPDw+ZTCZblwMAAAAAwF1lNpv1999/KzAwUCVKMOYjL4Qwd8mxY8cUFBRk6zIAAAAAADDU0aNHVbZsWVuXcU8ihLlLPDw8JF29+Dw9PW1cDQAAAAAAd9f58+cVFBRk+T6M3Ahh7pKcW5A8PT0JYQAAAAAAxQZTctwYN2kBAAAAAAAYgBAGAAAAAADAAIQwAAAAAAAABmBOGBvKzs5WZmamrcsAij1HR0ceoQcAAADgriOEsZHMzEwdOnRI2dnZti4FKPZKlCih8uXLy9HR0dalAAAAALiPEcLYgNlsVmpqquzs7BQUFMRv4AEbys7O1rFjx5Samqpy5coxkzsAAACAu4YQxgauXLmiixcvKjAwUK6urrYuByj2fH19dezYMV25ckUODg62LgcAAADAfYohGDaQlZUlSdz6ANwjcn4Wc342AQAAAOBuIISxIW57AO4N/CwCAAAAMAIhDAAAAAAAgAEIYVBkHD58WCaTSTt37rR1KRb79+9X/fr15ezsrBo1atikhpCQEE2fPt0m+wYAAAAA5B8T895DQl751tD9HZ7QukDrx8bGasGCBRo/frxeeeUVS/uyZcvUsWNHmc3mwi7xnjdmzBi5ubkpOTlZ7u7uea7DeQMAAAAASIyEQQE5Oztr4sSJOnPmjK1LKTSZmZm3vW1KSooaN26s4OBg+fj43HC9+/G8AQAAAAAKhhAGBRIVFSV/f3+NHz/+huvExcXlujVn+vTpCgkJsbyPjY1Vhw4dNG7cOPn5+cnb21vx8fG6cuWKXnzxRZUqVUply5ZVQkJCrv7379+vhg0bytnZWVWrVtX69eutlu/du1etWrWSu7u7/Pz89NRTT+nUqVOW5c2aNdOgQYM0dOhQlS5dWtHR0XkeR3Z2tuLj41W2bFk5OTmpRo0aWrFihWW5yWTSjh07FB8fL5PJpLi4uDs6b5L0xRdfqEqVKnJyclJISIimTJlitfzEiRNq27atXFxcVL58eS1cuDBXH2fPntUzzzwjX19feXp6qkWLFtq1a5dl+a5du9S8eXN5eHjI09NTtWvX1vbt229aFwAAAADgzhHCoEDs7Ow0btw4vfPOO/rzzz/vqK+1a9fq2LFj+uGHHzR16lSNGTNGbdq0UcmSJbVlyxY9++yzGjBgQK79vPjiixoxYoR++eUXNWjQQG3bttVff/0l6WoA0aJFC9WsWVPbt2/XihUrlJaWpi5dulj1sWDBAjk6Omrjxo2aN29envXNmDFDU6ZM0eTJk7V7925FR0erXbt2OnDggCQpNTVVVapU0YgRI5SamqqRI0fe8Fjzc9527NihLl26qFu3btqzZ4/i4uL0xhtvKDEx0bJObGysjh49qnXr1mnJkiWaM2eOTpw4YdXPE088oRMnTuj777/Xjh07VKtWLT3yyCM6ffq0JKlnz54qW7astm3bph07duiVV16Rg4PDDWsHAAAAABQOQhgUWMeOHVWjRg2NGTPmjvopVaqUZs6cqbCwMPXt21dhYWG6ePGiXn31VYWGhmrUqFFydHTUjz/+aLXdoEGD1LlzZ0VERGju3Lny8vLSBx98IEmaNWuWatasqXHjxik8PFw1a9bUhx9+qHXr1um3336z9BEaGqpJkyYpLCxMYWFhedY3efJkvfzyy+rWrZvCwsI0ceJE1ahRwzIJrr+/v+zt7eXu7i5/f/8bzgmT41bnberUqXrkkUf0xhtvqFKlSoqNjdWgQYP0r3/9S5L022+/6fvvv9d7772n+vXrq3bt2vrggw/0zz//WPr48ccftXXrVn3++eeqU6eOQkNDNXnyZHl7e2vJkiWSpCNHjigqKkrh4eEKDQ3VE088oerVq9+0dgAAAADAnSOEwW2ZOHGiFixYoH379t12H1WqVFGJEv+7BP38/BQZGWl5b2dnJx8fn1wjPRo0aGD5s729verUqWOpY9euXVq3bp3c3d0tr/DwcElX52/JUbt27ZvWdv78eR07dkyNGjWyam/UqNEdHfPNztu+ffvy3N+BAweUlZWlffv2yd7e3qr28PBweXt7W97v2rVL6enp8vHxsToHhw4dshz/8OHD9cwzzygqKkoTJkywOi8AAAAAgLuHEAa3pUmTJoqOjtaoUaNyLStRokSuJ/5cvnw513rX3wJjMpnybMvOzs53Xenp6Wrbtq127txp9Tpw4ICaNGliWc/NzS3ffRamm523wpCenq6AgIBcx5+cnKwXX3xR0tU5e3799Ve1bt1aa9euVeXKlbV06dK7Ug8AAAAA4H94RDVu24QJE1SjRo1ct/P4+vrq+PHjMpvNMplMkqSdO3cW2n5/+uknS6By5coV7dixQ4MGDZIk1apVS1988YVCQkJkb3/7l7enp6cCAwO1ceNGNW3a1NK+ceNGPfTQQ3dU/43OW0REhDZu3GjVtnHjRlWqVEl2dnYKDw+3HG/dunUlScnJyTp79qxl/Vq1aun48eOyt7e3mgj5epUqVVKlSpU0bNgwde/eXQkJCerYseMdHRcAAAAA4OYYCYPbFhkZqZ49e2rmzJlW7c2aNdPJkyc1adIkpaSkaPbs2fr+++8Lbb+zZ8/W0qVLtX//fg0cOFBnzpxR3759JUkDBw7U6dOn1b17d23btk0pKSlauXKl+vTpo6ysrALt58UXX9TEiRO1ePFiJScn65VXXtHOnTs1ZMiQO6r/RudtxIgRWrNmjd5880399ttvWrBggWbNmmWZ8DcsLEwxMTEaMGCAtmzZoh07duiZZ56Ri4uLpY+oqCg1aNBAHTp00H/+8x8dPnxYmzZt0muvvabt27frn3/+0aBBg5SUlKQ//vhDGzdu1LZt2xQREXFHxwQAAAAAuDVCGNyR+Pj4XLcLRUREaM6cOZo9e7aqV6+urVu33vTJQQU1YcIETZgwQdWrV9ePP/6o5cuXq3Tp0pJkGb2SlZWlli1bKjIyUkOHDpW3t7fV/DP5MXjwYA0fPlwjRoxQZGSkVqxYoeXLlys0NPSOjyGv81arVi199tln+vTTT1W1alWNHj1a8fHxio2NtayTkJCgwMBANW3aVJ06dVL//v1VpkwZy3KTyaTvvvtOTZo0UZ8+fVSpUiV169ZNf/zxh/z8/GRnZ6e//vpLvXr1UqVKldSlSxe1atVKY8eOveNjAgAAAADcnMl8/eQdKBTnz5+Xl5eXzp07J09PT6tlly5d0qFDh1S+fHk5OzvbqEIAOfiZBAAAAO7czb4H4yrmhAEAAAAA3FVTuraxdQlF2ojF39i6BBQSbkcCAAAAAAAwACEMAAAAAACAAQhhAAAAAAAADEAIAwAAAAAAYABCGAAAAAAAAAMQwgAAAAAAABiAEAYAAAAAAMAAhDAAAAAAAAAGIIRBkXH48GGZTCbt3LnT1qVY7N+/X/Xr15ezs7Nq1Khh63IAAAAAAPcwe1sXgGvEeRm8v3MFWj02NlYLFizQ+PHj9corr1jaly1bpo4dO8psNhd2hfe8MWPGyM3NTcnJyXJ3d8+13GQy3XL7uLi4u1QdAAAAAOBewkgYFIizs7MmTpyoM2fO2LqUQpOZmXnb26akpKhx48YKDg6Wj49PruWpqamW1/Tp0+Xp6WnVNnLkSMNqBQAAAADYFiEMCiQqKkr+/v4aP378DdeJi4vLdWvO9OnTFRISYnkfGxurDh06aNy4cfLz85O3t7fi4+N15coVvfjiiypVqpTKli2rhISEXP3v379fDRs2lLOzs6pWrar169dbLd+7d69atWold3d3+fn56amnntKpU6csy5s1a6ZBgwZp6NChKl26tKKjo/M8juzsbMXHx6ts2bJycnJSjRo1tGLFCstyk8mkHTt2KD4+XiaTKc8RLf7+/paXl5eXTCaT5f28efPUuHHjfJ2nt99+W4GBgQoLC7PclvXll1+qefPmcnV1VfXq1bV582bLdn/88Yfatm2rkiVLys3NTVWqVNF3332X53ECAAAAAIxBCIMCsbOz07hx4/TOO+/ozz//vKO+1q5dq2PHjumHH37Q1KlTNWbMGLVp00YlS5bUli1b9Oyzz2rAgAG59vPiiy9qxIgR+uWXX9SgQQO1bdtWf/31lyTp7NmzatGihWrWrKnt27drxYoVSktLU5cuXaz6WLBggRwdHbVx40bNmzcvz/pmzJihKVOmaPLkydq9e7eio6PVrl07HThwQNLVUS5VqlTRiBEjbmtUS36tWbNGycnJWrVqlb755htL+2uvvaaRI0dq586dqlSpkrp3764rV65IkgYOHKiMjAz98MMP2rNnjyZOnJjn7VIAAAAAAOMQwqDAOnbsqBo1amjMmDF31E+pUqU0c+ZMhYWFqW/fvgoLC9PFixf16quvKjQ0VKNGjZKjo6N+/PFHq+0GDRqkzp07KyIiQnPnzpWXl5c++OADSdKsWbNUs2ZNjRs3TuHh4apZs6Y+/PBDrVu3Tr/99pulj9DQUE2aNElhYWEKCwvLs77Jkyfr5ZdfVrdu3RQWFqaJEyeqRo0amj59uqSro1zs7e3l7u4uf3//uxZyuLm56f3331eVKlVUpUoVS/vIkSPVunVrVapUSWPHjtUff/yhgwcPSpKOHDmiRo0aKTIyUhUqVFCbNm3UpEmTu1IfAAAAACB/CGFwWyZOnKgFCxZo3759t91HlSpVVKLE/y5BPz8/RUZGWt7b2dnJx8dHJ06csNquQYMGlj/b29urTp06ljp27dqldevWyd3d3fIKDw+XdHX+lhy1a9e+aW3nz5/XsWPH1KhRI6v2Ro0a3dEx347IyEg5Ojrmaq9WrZrlzwEBAZJkOVeDBw/WW2+9pUaNGmnMmDHavXu3McUCAAAAAG6IEAa3pUmTJoqOjtaoUaNyLStRokSuJyVdvnw513oODg5W700mU55t2dnZ+a4rPT1dbdu21c6dO61eBw4csBoJ4ubmlu8+75b8nqcb1Xrtucp5ClPOuXrmmWf0+++/66mnntKePXtUp04dvfPOO4VVOgAAAADgNhDC4LZNmDBBX3/9tdWEsJLk6+ur48ePWwUMO3fuLLT9/vTTT5Y/X7lyRTt27FBERIQkqVatWvr1118VEhKiihUrWr0KErx4enoqMDBQGzdutGrfuHGjKleuXCjHcbfPU1BQkJ599ll9+eWXGjFihN57771C6xsAAAAAUHCEMLhtkZGR6tmzp2bOnGnV3qxZM508eVKTJk1SSkqKZs+ere+//77Q9jt79mwtXbpU+/fv18CBA3XmzBn17dtX0tUJaU+fPq3u3btr27ZtSklJ0cqVK9WnTx9lZWUVaD8vvviiJk6cqMWLFys5OVmvvPKKdu7cqSFDhhTKcdzN8zR06FCtXLlShw4d0s8//6x169ZZgioAAAAAgG0QwuCOxMfH57pdKCIiQnPmzNHs2bNVvXp1bd26tVCfHDRhwgRNmDBB1atX148//qjly5erdOnSkmQZvZKVlaWWLVsqMjJSQ4cOlbe3t9X8M/kxePBgDR8+XCNGjFBkZKRWrFih5cuXKzQ0tFCO426ep6ysLA0cOFARERGKiYlRpUqVNGfOnELpGwAAAABwe0zm6yelQKE4f/68vLy8dO7cOXl6elotu3Tpkg4dOqTy5cvL2dnZRhUCyMHPJAAAwN01pWsbW5dQpI1Y/I2tS8iXm30PxlWMhAEAAAAAADAAIQwAAAAAAIABCGEAAAAAAAAMQAgDAAAAAABgAEIYAAAAAAAAAxDCAAAAAAAAGIAQBgAAAAAAwACEMAAAAAAAAAYghAEAAAAAADAAIQzuayaTScuWLbN1GQAAAAAAyN7WBeB/IhdEGrq/Pb33FHibkydPavTo0fr222+VlpamkiVLqnr16ho9erQaNWp0F6rMn7i4OC1btkw7d+60WQ0AAAAAANwMIQwKpHPnzsrMzNSCBQtUoUIFpaWlac2aNfrrr79sXRoAAAAAAPc0bkdCvp09e1YbNmzQxIkT1bx5cwUHB+uhhx7SqFGj1K5dO0lXb/+ZP3++2rRpI1dXV0VERGjz5s06ePCgmjVrJjc3NzVs2FApKSlWfc+dO1cPPvigHB0dFRYWpo8//thq+ZEjR9S+fXu5u7vL09NTXbp0UVpamiQpMTFRY8eO1a5du2QymWQymZSYmGjZ9tSpU+rYsaNcXV0VGhqq5cuXW5YlJSXJZDJpzZo1qlOnjlxdXdWwYUMlJydb7f+rr75SrVq15OzsrAoVKmjs2LG6cuWKJMlsNisuLk7lypWTk5OTAgMDNXjwYMu2c+bMUWhoqJydneXn56fHH3/8zj8MAAAAAECRUyxDmP/7v//Tk08+KR8fH7m4uCgyMlLbt2+3LDebzRo9erQCAgLk4uKiqKgoHThwwIYV3xvc3d3l7u6uZcuWKSMj44brvfnmm+rVq5d27typ8PBw9ejRQwMGDNCoUaO0fft2mc1mDRo0yLL+0qVLNWTIEI0YMUJ79+7VgAED1KdPH61bt06SlJ2drfbt2+v06dNav369Vq1apd9//11du3aVJHXt2lUjRoxQlSpVlJqaqtTUVMsySRo7dqy6dOmi3bt367HHHlPPnj11+vRpq5pfe+01TZkyRdu3b5e9vb369u1rWbZhwwb16tVLQ4YM0X//+1/Nnz9fiYmJevvttyVJX3zxhaZNm6b58+frwIEDWrZsmSIjr95atn37dg0ePFjx8fFKTk7WihUr1KRJkzv8JAAAAAAARVGxC2HOnDmjRo0aycHBQd9//73++9//asqUKSpZsqRlnUmTJmnmzJmaN2+etmzZIjc3N0VHR+vSpUs2rNz27O3tlZiYqAULFsjb21uNGjXSq6++qt27d1ut16dPH3Xp0kWVKlXSyy+/rMOHD6tnz56Kjo5WRESEhgwZoqSkJMv6kydPVmxsrJ5//nlVqlRJw4cPV6dOnTR58mRJ0po1a7Rnzx4tWrRItWvXVr169fTRRx9p/fr12rZtm1xcXOTu7i57e3v5+/vL399fLi4ulv5jY2PVvXt3VaxYUePGjVN6erq2bt1qVfPbb7+tpk2bqnLlynrllVe0adMmy+c9duxYvfLKK+rdu7cqVKigRx99VG+++abmz58v6eooHX9/f0VFRalcuXJ66KGH1K9fP8syNzc3tWnTRsHBwapZs6bVKBkAAAAAQPFR7EKYiRMnKigoSAkJCXrooYdUvnx5tWzZUg8++KCkq6Ngpk+frtdff13t27dXtWrV9NFHH+nYsWM8ZUdX54Q5duyYli9frpiYGCUlJalWrVpWt/9Uq1bN8mc/Pz9JsowMyWm7dOmSzp8/L0nat29frkl9GzVqpH379lmWBwUFKSgoyLK8cuXK8vb2tqxzM9fW4+bmJk9PT504ceKG6wQEBEiSZZ1du3YpPj7eMhLI3d1d/fr1U2pqqi5evKgnnnhC//zzjypUqKB+/fpp6dKllluVHn30UQUHB6tChQp66qmntHDhQl28ePGWNQMAAAAA7j/FLoRZvny56tSpoyeeeEJlypRRzZo19d5771mWHzp0SMePH1dUVJSlzcvLS/Xq1dPmzZttUfI9x9nZWY8++qjeeOMNbdq0SbGxsRozZoxluYODg+XPJpPphm3Z2dmG1HvtvnP2f/2+b1Zfenq6xo4dq507d1pee/bs0YEDB+Ts7KygoCAlJydrzpw5cnFx0fPPP68mTZro8uXL8vDw0M8//6xPPvlEAQEBGj16tKpXr66zZ8/e3YMGAAAAANxzil0I8/vvv2vu3LkKDQ3VypUr9dxzz2nw4MFasGCBJOn48eOS/jeCI4efn59lWV4yMjJ0/vx5q1dxUblyZV24cOG2t4+IiNDGjRut2jZu3KjKlStblh89elRHjx61LP/vf/+rs2fPWtZxdHRUVlbWbddwM7Vq1VJycrIqVqyY61WixNUfIRcXF7Vt21YzZ85UUlKSNm/erD17rj4C3N7eXlFRUZo0aZJ2796tw4cPa+3atXelVgAAAADAvavYPaI6OztbderU0bhx4yRJNWvW1N69ezVv3jz17t37tvsdP368xo4dW1hl3pP++usvPfHEE+rbt6+qVasmDw8Pbd++XZMmTVL79u1vu98XX3xRXbp0Uc2aNRUVFaWvv/5aX375pVavXi1JioqKUmRkpHr27Knp06frypUrev7559W0aVPVqVNHkhQSEqJDhw5p586dKlu2rDw8POTk5FQoxz169Gi1adNG5cqV0+OPP64SJUpo165d2rt3r9566y0lJiYqKytL9erVk6urq/7973/LxcVFwcHB+uabb/T777+rSZMmKlmypL777jtlZ2crLCysUGoDAAAAABQdxW4kTEBAgGX0RI6IiAgdOXJEkuTv7y9Jlscf50hLS7Msy8uoUaN07tw5y+vaURv3C3d3d9WrV0/Tpk1TkyZNVLVqVb3xxhvq16+fZs2addv9dujQQTNmzNDkyZNVpUoVzZ8/XwkJCWrWrJmkq7cHffXVVypZsqSaNGmiqKgoVahQQYsXL7b00blzZ8XExKh58+by9fXVJ598cqeHaxEdHa1vvvlG//nPf1S3bl3Vr19f06ZNU3BwsCTJ29tb7733nho1aqRq1app9erV+vrrr+Xj4yNvb299+eWXatGihSIiIjRv3jx98sknqlKlSqHVBwAAAAAoGkxms9ls6yKM1KNHDx09elQbNmywtA0bNkxbtmzRpk2bZDabFRgYqJEjR2rEiBGSpPPnz6tMmTJKTExUt27d8rWf8+fPy8vLS+fOnZOnp6fVskuXLunQoUMqX768nJ2dC+/gANwWfiYBAADurild29i6hCJtxOJvbF1CvtzsezCuKna3Iw0bNkwNGzbUuHHj1KVLF23dulXvvvuu3n33XUlXR10MHTpUb731lkJDQ1W+fHm98cYbCgwMVIcOHWxbPAAAAAAAKLKKXQhTt25dLV26VKNGjVJ8fLzKly+v6dOnq2fPnpZ1XnrpJV24cEH9+/fX2bNn1bhxY61YsYLfkAMAAAAAgNtW7EIYSWrTpo3atLnxcDiTyaT4+HjFx8cbWBUAAAAAALifFbuJeQEAAAAAAGyBEAYAAAAAAMAAhDAAAAAAAAAGIIQBAAAAAAAwACEMAAAAAACAAQhhAAAAAAAADEAIg2KhWbNmGjp0qE1rOHz4sEwmk3bu3GnTOgAAAAAAtmFv6wLwP/vCIwzdX8T+fQVaPzY2VgsWLMjVHh0drRUrVhRWWXckKSlJzZs315kzZ+Tt7W1p//LLL+Xg4HDX9hsXF6exY8fedJ0rV64oNTVVpUuXvmt1AAAAAADuXYQwKJCYmBglJCRYtTk5OdmomvwrVarUXe1/5MiRevbZZy3v69atq/79+6tfv36WNjs7O/n7+9/VOgAAAAAA9y5uR0KBODk5yd/f3+pVsmRJSVdHoTg6OmrDhg2W9SdNmqQyZcooLS1NknT06FF16dJF3t7eKlWqlNq3b6/Dhw9b7ePDDz9UlSpV5OTkpICAAA0aNEhS3rfznD17ViaTSUlJSTp8+LCaN28uSSpZsqRMJpNiY2Ml5b4d6cyZM+rVq5dKliwpV1dXtWrVSgcOHLAsT0xMlLe3t1auXKmIiAi5u7srJiZGqampeZ4Xd3d3q3NiZ2cnDw8Pq7br609KSpLJZNLKlStVs2ZNubi4qEWLFjpx4oS+//57RUREyNPTUz169NDFixct+8rOztb48eNVvnx5ubi4qHr16lqyZEn+P0QAAAAAgE0QwqDQ5AQdTz31lM6dO6dffvlFb7zxht5//335+fnp8uXLio6OloeHhzZs2KCNGzdawo3MzExJ0ty5czVw4ED1799fe/bs0fLly1WxYsV87T8oKEhffPGFJCk5OVmpqamaMWNGnuvGxsZq+/btWr58uTZv3iyz2azHHntMly9ftqxz8eJFTZ48WR9//LF++OEHHTlyRCNHjrzDs5RbXFycZs2apU2bNllCqunTp2vRokX69ttv9Z///EfvvPOOZf3x48fro48+0rx58/Trr79q2LBhevLJJ7V+/fpCrw0AAAAAUHi4HQkF8s0338jd3d2q7dVXX9Wrr74qSXrrrbe0atUq9e/fX3v37lXv3r3Vrl07SdLixYuVnZ2t999/XyaTSZKUkJAgb29vJSUlqWXLlnrrrbc0YsQIDRkyxNJ/3bp181WbnZ2d5bajMmXKWM0Jc60DBw5o+fLl2rhxoxo2bChJWrhwoYKCgrRs2TI98cQTkqTLly9r3rx5evDBByVJgwYNUnx8fL5qKYi33npLjRo1kiQ9/fTTGjVqlFJSUlShQgVJ0uOPP65169bp5ZdfVkZGhsaNG6fVq1erQYMGkqQKFSroxx9/1Pz589W0adNCrw8AAAAAUDgIYVAgzZs319y5c63arp1vxdHRUQsXLlS1atUUHBysadOmWZbt2rVLBw8elIeHh9X2ly5dUkpKik6cOKFjx47pkUceuavHsG/fPtnb26tevXqWNh8fH4WFhWnfvv9NVuzq6moJYCQpICBAJ06cKPR6qlWrZvmzn5+fXF1dLQFMTtvWrVslSQcPHtTFixf16KOPWvWRmZmpmjVrFnptAAAAAIDCQwiDAnFzc7vl7UGbNm2SJJ0+fVqnT5+Wm5ubJCk9PV21a9fWwoULc23j6+urEiVufndcznKz2Wxpu/b2ocJ2/dOUTCaT1b7vxn5MJlOe+83OzpZ09RxK0rfffqsHHnjAar2iMEEyAAAAABRnzAmDQpWSkqJhw4bpvffeU7169dS7d29LgFCrVi0dOHBAZcqUUcWKFa1eXl5e8vDwUEhIiNasWZNn376+vpJkNTnutZP0SldH4khSVlbWDWuMiIjQlStXtGXLFkvbX3/9peTkZFWuXPm2jtsolStXlpOTk44cOZLrHAYFBdm6PAAAAADATRDCoEAyMjJ0/Phxq9epU6ckXQ0+nnzySUVHR6tPnz5KSEjQ7t27NWXKFElSz549Vbp0abVv314bNmzQoUOHlJSUpMGDB+vPP/+UdHWS2ilTpmjmzJk6cOCAfv75Z8uktC4uLqpfv74mTJigffv2af369Xr99det6gsODpbJZNI333yjkydPWkaOXCs0NFTt27dXv3799OOPP2rXrl168skn9cADD6h9+/Z38/TdMQ8PD40cOVLDhg3TggULlJKSYjlHCxYssHV5AAAAAICbIIRBgaxYsUIBAQFWr8aNG0uS3n77bf3xxx+aP3++pKtzqLz77rt6/fXXtWvXLrm6uuqHH35QuXLl1KlTJ0VEROjpp5/WpUuX5OnpKUnq3bu3pk+frjlz5qhKlSpq06aN1aOjP/zwQ125ckW1a9fW0KFD9dZbb1nV98ADD2js2LF65ZVX5OfnZ3m89fUSEhJUu3ZttWnTRg0aNJDZbNZ3332X61age9Gbb76pN954Q+PHj1dERIRiYmL07bffqnz58rYuDQAAAABwEybz3ZjkAjp//ry8vLx07tw5S8CQ49KlSzp06JDKly8vZ2dnG1UIIAc/kwAAAHfXlK5tbF1CkTZi8Te2LiFfbvY9GFcxEgYAAAAAAMAAhDAAAAAAAAAGIIQBAAAAAAAwACEMAAAAAACAAQhhAAAAAAAADEAIAwAAAAAAYABCGAAAAAAAAAMQwgAAAAAAABiAEAYAAAAAAMAAhDCwuZCQEE2fPt3WZRSa2NhYdejQoUDbxMXFyWQyyWQy3fG5SExMtPQ1dOjQO+oLAAAAAFB47G1dAP5n9rNrDd3fwHktCrR+bGysFixYIElycHBQuXLl1KtXL7366quyt7/1pZSYmKihQ4fq7Nmzt1NurlrOnj2rZcuW3XFft+vw4cMqX768fvnlF9WoUeOO+6tSpYpWr14tT0/PO+qna9euiomJUadOne64JgAAAABA4SGEQYHExMQoISFBGRkZ+u677zRw4EA5ODho1KhRti6tyLO3t5e/v/8d9+Pi4iIXFxc5OjoWQlUAAAAAgMLC7UgoECcnJ/n7+ys4OFjPPfecoqKitHz5cknS1KlTFRkZKTc3NwUFBen5559Xenq6JCkpKUl9+vTRuXPnLLfKxMXFWfq9ePGi+vbtKw8PD5UrV07vvvvuHdW5d+9etWrVSu7u7vLz89NTTz2lU6dOWZY3a9ZMgwcP1ksvvaRSpUrJ39/fqh5J2r9/vxo3bixnZ2dVrlxZq1evlslksoy+KV++vCSpZs2aMplMatasmdX2kydPVkBAgHx8fDRw4EBdvny5wMdhMpk0f/58tWnTRq6uroqIiNDmzZt18OBBNWvWTG5ubmrYsKFSUlIK3DcAAAAAwFiEMLgjLi4uyszMlCSVKFFCM2fO1K+//qoFCxZo7dq1eumllyRJDRs21PTp0+Xp6anU1FSlpqZq5MiRln6mTJmiOnXq6JdfftHzzz+v5557TsnJybdV09mzZ9WiRQvVrFlT27dv14oVK5SWlqYuXbpYrbdgwQK5ublpy5YtmjRpkuLj47Vq1SpJUlZWljp06CBXV1dt2bJF7777rl577TWr7bdu3SpJWr16tVJTU/Xll19alq1bt04pKSlat26dFixYoMTERCUmJt7W8bz55pvq1auXdu7cqfDwcPXo0UMDBgzQqFGjtH37dpnNZg0aNOi2+gYAAAAAGIcQBrfFbDZr9erVWrlypVq0uDq3zNChQ9W8eXOFhISoRYsWeuutt/TZZ59JkhwdHeXl5SWTySR/f3/5+/vL3d3d0t9jjz2m559/XhUrVtTLL7+s0qVLa926dbdV26xZs1SzZk2NGzdO4eHhqlmzpj788EOtW7dOv/32m2W9atWqacyYMQoNDVWvXr1Up04drVmzRpK0atUqpaSk6KOPPlL16tXVuHFjvf3221b78fX1lST5+PjI399fpUqVsiwrWbKkZs2apfDwcLVp00atW7e29F1Qffr0UZcuXVSpUiW9/PLLOnz4sHr27Kno6GhFRERoyJAhSkpKuq2+AQAAAADGYU4YFMg333wjd3d3Xb58WdnZ2erRo4flNp7Vq1dr/Pjx2r9/v86fP68rV67o0qVLunjxolxdXW/ab7Vq1Sx/zglqTpw4cVs17tq1S+vWrbMKeXKkpKSoUqVKufYpSQEBAZZ9JicnKygoyGqOloceeijfNVSpUkV2dnZWfe/Zs6dAx5Hj2jr9/PwkSZGRkVZtly5d0vnz5+94Ul8AAAAAwN1DCIMCad68uebOnStHR0cFBgZanop0+PBhtWnTRs8995zefvttlSpVSj/++KOefvppZWZm3jKEcXBwsHpvMpmUnZ19WzWmp6erbdu2mjhxYq5lAQEBd2Wf1yvMvq/ty2Qy3bCtsGoHAAAAANwdhDAoEDc3N1WsWDFX+44dO5Sdna0pU6aoRImrd7nl3IqUw9HRUVlZWXe9xlq1aumLL75QSEhIvh6dnZewsDAdPXpUaWlpltEn27Zts1on5+lDRhwTAAAAAKDoY04YFIqKFSvq8uXLeuedd/T777/r448/1rx586zWCQkJUXp6utasWaNTp07p4sWLd7TPc+fOaefOnVavo0ePauDAgTp9+rS6d++ubdu2KSUlRStXrlSfPn3yHZg8+uijevDBB9W7d2/t3r1bGzdu1Ouvvy7pfyNPypQpIxcXF8vEv+fOnbuj4wEAAAAA3N8IYVAoqlevrqlTp2rixImqWrWqFi5cqPHjx1ut07BhQz377LPq2rWrfH19NWnSpDvaZ1JSkmrWrGn1Gjt2rAIDA7Vx40ZlZWWpZcuWioyM1NChQ+Xt7W0ZpXMrdnZ2WrZsmdLT01W3bl0988wzlqcjOTs7S5Ls7e01c+ZMzZ8/X4GBgWrfvv0dHQ8AAAAA4P5mMpvNZlsXcT86f/68vLy8dO7cuVyTpV66dEmHDh1S+fLlLV/oce/buHGjGjdurIMHD+rBBx8s1L7j4uK0bNky7dy5s9D6bNasmWrUqKHp06cXWp/3K34mAQAA7q4pXdvYuoQibcTib2xdQr7c7HswrmIkDHADS5cu1apVq3T48GGtXr1a/fv3V6NGjQo9gMmxZ88eubu7a86cOXfUz8KFC+Xu7q4NGzYUUmUAAAAAgMLAxLzADfz99996+eWXdeTIEZUuXVpRUVGaMmXKXdnX4MGD9eSTT0qSfH1976ivdu3aqV69epIkb2/vOy0NAAAAAFBICGGAG+jVq5d69eplyL5KlSqlUqVKFUpfHh4e8vDwKJS+AAAAAACFh9uRAAAAAAAADEAIAwAAAAAAYABCGAAAAAAAAAMQwgAAAAAAABiAEAYAAAAAAMAAhDAAAAAAAAAGIIQB7lFxcXHy8/OTyWTSsmXLCr3/kJAQTZ8+3fK+MPYTGxurDh063FEfAAAAAHC/srd1AfifKV3bGLq/EYu/KdD6sbGxWrBggSTJwcFB5cqVU69evfTqq6/K3v7evpRMJpOWLl1aZAKCffv2aezYsVq6dKnq16+vkiVL5lrn8OHDKl++fK72nj176t///vct97Ft2za5ubkVSr35ce31k5fg4GAdPnz4tvs+e/bsXQmrAAAAAKCw3NvfnHHPiYmJUUJCgjIyMvTdd99p4MCBcnBw0KhRowrcV1ZWlkwmk0qUYEDW9VJSUiRJ7du3l8lkuum6q1evVpUqVSzvXVxc8rUPX1/f2y/wNsyYMUMTJkywvA8ICFBCQoJiYmIkSXZ2dobWAwAAAABG49svCsTJyUn+/v4KDg7Wc889p6ioKC1fvlySlJGRoZEjR+qBBx6Qm5ub6tWrp6SkJMu2iYmJ8vb21vLly1W5cmU5OTnpyJEjysjI0Msvv6ygoCA5OTmpYsWK+uCDDyzb7d27V61atZK7u7v8/Pz01FNP6dSpU5blzZo10+DBg/XSSy+pVKlS8vf3V1xcnGV5SEiIJKljx44ymUyW9ykpKWrfvr38/Pzk7u6uunXravXq1VbHm5qaqtatW8vFxUXly5fXokWLct3Gc/bsWT3zzDPy9fWVp6enWrRooV27dt30PO7Zs0ctWrSQi4uLfHx81L9/f6Wnp0u6ehtS27ZtJUklSpS4ZQjj4+Mjf39/y8vLyytfx3b9cVzv6NGj6tKli7y9vVWqVCm1b9/eaqRKVlaWhg8fLm9vb/n4+Oill16S2Wy+YX9eXl5WdUqSt7e35X1aWtpNP+clS5YoMjLScs6ioqJ04cIFxcXFacGCBfrqq69kMplkMpmUlJSkzMxMDRo0SAEBAXJ2dlZwcLDGjx9/03MJAAAAAHcTIQzuiIuLizIzMyVJgwYN0ubNm/Xpp59q9+7deuKJJxQTE6MDBw5Y1r948aImTpyo999/X7/++qvKlCmjXr166ZNPPtHMmTO1b98+zZ8/X+7u7pKuBhwtWrRQzZo1tX37dq1YsUJpaWnq0qWLVR0LFiyQm5ubtmzZokmTJik+Pl6rVq2SdPW2G0lKSEhQamqq5X16eroee+wxrVmzRr/88otiYmLUtm1bHTlyxNJvr169dOzYMSUlJemLL77Qu+++qxMnTljt+4knntCJEyf0/fffa8eOHapVq5YeeeQRnT59Os9zduHCBUVHR6tkyZLatm2bPv/8c61evVqDBg2SJI0cOVIJCQmSroZAqampBf5c8nNsN3P58mVFR0fLw8NDGzZs0MaNG+Xu7q6YmBjL5z1lyhQlJibqww8/1I8//qjTp09r6dKlBa5VuvXnnJqaqu7du6tv377at2+fkpKS1KlTJ5nNZo0cOVJdunRRTEyM5Xw1bNhQM2fO1PLly/XZZ58pOTlZCxcutARwAAAAAGAL3I6E22I2m7VmzRqtXLlSL7zwgo4cOaKEhAQdOXJEgYGBkq6GCStWrFBCQoLGjRsn6eqX+zlz5qh69eqSpN9++02fffaZVq1apaioKElShQoVLPuZNWuWatasadlekj788EMFBQXpt99+U6VKlSRJ1apV05gxYyRJoaGhmjVrltasWaNHH33UcttNzqiLHNWrV7fUIUlvvvmmli5dquXLl2vQoEHav3+/Vq9erW3btqlOnTqSpPfff1+hoaGWbX788Udt3bpVJ06ckJOTkyRp8uTJWrZsmZYsWaL+/fvnOneLFi3SpUuX9NFHH1nmZJk1a5batm2riRMnys/PT97e3pJkVe+NNGzY0OqWrg0bNqhmzZo3PbZbWbx4sbKzs/X+++9bRuIkJCTI29tbSUlJatmypaZPn65Ro0apU6dOkqR58+Zp5cqVt+w7L7f6nNPT03XlyhV16tRJwcHBkqTIyEjLui4uLsrIyLA6X0eOHFFoaKgaN24sk8lk2Q4AAAAAbIUQBgXyzTffyN3dXZcvX1Z2drZ69OihuLg4JSUlKSsryxKK5MjIyJCPj4/lvaOjo6pVq2Z5v3PnTtnZ2alp06Z57m/Xrl1at26dZWTMtVJSUqxCmGsFBATkGrFyvfT0dMXFxenbb79Vamqqrly5on/++ccyWiQ5OVn29vaqVauWZZuKFStaTZK7a9cupaenWx2jJP3zzz+WeV2ut2/fPlWvXt1qUtxGjRopOztbycnJ8vPzu2nd11u8eLEiIiIs74OCgm55bLeya9cuHTx4UB4eHlbtly5dUkpKis6dO6fU1FTVq1fPssze3l516tS56S1JN9vfzT7nli1b6pFHHlFkZKSio6PVsmVLPf7443lOWJwjNjZWjz76qMLCwhQTE6M2bdqoZcuWBa4NAAAAAAoLIQwKpHnz5po7d64cHR0VGBhoeSpSenq67OzstGPHjlwTrF77xdrFxcVqjpNbTSKbnp5uGSFyvYCAAMufHRwcrJaZTCZlZ2fftO+RI0dq1apVmjx5sipWrCgXFxc9/vjjlttt8iM9PV0BAQFWc9/kyBnNcrcFBQWpYsWKVm1Dhgy5o2NLT09X7dq1tXDhwlzL7saEvrf6nO3s7LRq1Spt2rRJ//nPf/TOO+/otdde05YtW/J8QpQk1apVS4cOHdL333+v1atXq0uXLoqKitKSJUsKvX4AAAAAyA9CGBSIm5tbri/8klSzZk1lZWXpxIkTevjhh/PdX2RkpLKzs7V+/XrL7UjXqlWrlr744guFhITc0WOwHRwclJWVZdW2ceNGxcbGqmPHjpKuBgHXTjwbFhamK1eu6JdfflHt2rUlSQcPHtSZM2es6jt+/Ljs7e3zPd9IRESEEhMTdeHCBctomI0bN6pEiRIKCwu77WMsyLHdSq1atbR48WKVKVNGnp6eea4TEBCgLVu2qEmTJpKkK1euWObEKaj8fM4mk0mNGjVSo0aNNHr0aAUHB2vp0qUaPny4HB0dc32+kuTp6amuXbuqa9euevzxxxUTE6PTp0+rVKlSBa4RAAAAAO4UE/OiUFSqVEk9e/ZUr1699OWXX+rQoUPaunWrxo8fr2+//faG24WEhKh3797q27evli1bpkOHDikpKUmfffaZJGngwIE6ffq0unfvrm3btiklJUUrV65Unz598vzSfbP9rFmzRsePH7eEKKGhofryyy+1c+dO7dq1Sz169LAaPRMeHq6oqCj1799fW7du1S+//KL+/ftbjeaJiopSgwYN1KFDB/3nP//R4cOHtWnTJr322mvavn17nrX07NlTzs7O6t27t/bu3at169bphRde0FNPPVXgW5Fu5FbHdis9e/ZU6dKl1b59e23YsMHyuQwePFh//vmnpKujbSZMmKBly5Zp//79ev7553X27NnbqvdWn/OWLVs0btw4bd++XUeOHNGXX36pkydPWm7DCgkJ0e7du5WcnKxTp07p8uXLmjp1qj755BPt379fv/32mz7//HP5+/sbNkIJAAAAAK5HCINCk5CQoF69emnEiBEKCwtThw4dtG3bNpUrV+6m282dO1ePP/64nn/+eYWHh6tfv366cOGCJCkwMFAbN25UVlaWWrZsqcjISA0dOlTe3t5Wk9HeypQpU7Rq1SoFBQWpZs2akqSpU6eqZMmSatiwodq2bavo6Ohcozg++ugj+fn5qUmTJurYsaP69esnDw8POTs7S7o6OuO7775TkyZN1KdPH1WqVEndunXTH3/8ccNAxdXVVStXrtTp06dVt25dPf7443rkkUc0a9asfB/PreTn2G7G1dVVP/zwg8qVK6dOnTopIiJCTz/9tC5dumQZGTNixAg99dRT6t27txo0aCAPDw/LyJuCutXn7OnpqR9++EGPPfaYKlWqpNdff11TpkxRq1atJEn9+vVTWFiY6tSpI19fX23cuFEeHh6aNGmS6tSpo7p16+rw4cP67rvvCnTdAAAAAEBhMplvZxZN3NL58+fl5eWlc+fO5bqd49KlSzp06JDKly9v+TKPouHPP/9UUFCQVq9erUceecTW5aCQ8DMJAABwd03p2sbWJRRpIxZ/Y+sS8uVm34NxFXPCADexdu1apaenKzIyUqmpqXrppZcUEhJimQcFAAAAAID8IoQBbuLy5ct69dVX9fvvv8vDw0MNGzbUwoULcz2NCQAAAACAWyGEAW4iOjpa0dHRti4DAAAAAHAfKJYzVMbFxclkMlm9wsPDLcsvXbqkgQMHysfHR+7u7urcubPS0tJsWDEAAAAAACjqimUII0lVqlRRamqq5fXjjz9alg0bNkxff/21Pv/8c61fv17Hjh1Tp06dCr0G5kQG7g38LAIAAAAwQrG9Hcne3l7+/v652s+dO6cPPvhAixYtUosWLSRdffRyRESEfvrpJ9WvX/+O921nZydJyszMlIuLyx33B+DOZGZmSvrfzyYAAAAA3A3FNoQ5cOCAAgMD5ezsrAYNGmj8+PEqV66cduzYocuXLysqKsqybnh4uMqVK6fNmzffMITJyMhQRkaG5f358+dvuG97e3u5urrq5MmTcnBwUIkSxXZAEmBz2dnZOnnypFxdXWVvX2z/SgQAAABggGL5jaNevXpKTExUWFiYUlNTNXbsWD388MPau3evjh8/LkdHR3l7e1tt4+fnp+PHj9+wz/Hjx2vs2LH52r/JZFJAQIAOHTqkP/74404OBUAhKFGihMqVKyeTyWTrUgAAAADcx4plCNOqVSvLn6tVq6Z69eopODhYn3322W3fHjRq1CgNHz7c8v78+fMKCgq64fqOjo4KDQ213AYBwHYcHR0ZkQYAAADgriuWIcz1vL29ValSJR08eFCPPvqoMjMzdfbsWavRMGlpaXnOIZPDyclJTk5OBdpviRIl5OzsfLtlAwAAAACAIoRf/UpKT09XSkqKAgICVLt2bTk4OGjNmjWW5cnJyTpy5IgaNGhgwyoBAAAAAEBRVixHwowcOVJt27ZVcHCwjh07pjFjxsjOzk7du3eXl5eXnn76aQ0fPlylSpWSp6enXnjhBTVo0KBQnowEAAAAAACKp2IZwvz555/q3r27/vrrL/n6+qpx48b66aef5OvrK0maNm2aSpQooc6dOysjI0PR0dGaM2eOjasGAAAAAABFmclsNpttXcT96Pz58/Ly8tK5c+fk6elp63IAAAAAwGamdG1j6xKKtBGLv7F1CfnC9+BbY04YAAAAAAAAAxDCAAAAAAAAGIAQBgAAAAAAwACEMAAAAAAAAAYghAEAAAAAADAAIQwAAAAAAIABCGEAAAAAAAAMQAgDAAAAAABgAEIYAAAAAAAAAxDCAAAAAAAAGIAQBgAAAAAAwACEMAAAAAAAAAYghAEAAAAAADAAIQwAAAAAAIABCGEAAAAAAAAMQAgDAAAAAABgAEIYAAAAAAAAAxDCAAAAAAAAGIAQBgAAAAAAwACEMAAAAAAAAAYghAEAAAAAADAAIQwAAAAAAIABCGEAAAAAAAAMQAgDAAAAAABgAEIYAAAAAAAAAxDCAAAAAAAAGIAQBgAAAAAAwACEMAAAAAAAAAYghAEAAAAAADAAIQwAAAAAAIABCGEAAAAAAAAMQAgDAAAAAABgAEIYAAAAAAAAAxDCAAAAAAAAGIAQBgAAAAAAwACEMAAAAAAAAAYghAEAAAAAADAAIQwAAAAAAIABCGEAAAAAAAAMQAgDAAAAAABgAEIYAAAAAAAAAxDCAAAAAAAAGIAQBgAAAAAAwACEMAAAAAAAAAYghAEAAAAAADAAIQwAAAAAAIABCGEAAAAAAAAMQAgDAAAAAABgAEIYAAAAAAAAAxDCAAAAAAAAGIAQBgAAAAAAwACEMAAAAAAAAAYghAEAAAAAADAAIQwAAAAAAIABCGEAAAAAAAAMQAgDAAAAAABgAEIYAAAAAAAAAxDCAAAAAAAAGIAQBgAAAAAAwACEMAAAAAAAAAYghAEAAAAAADAAIQwAAAAAAIABCGEAAAAAAAAMUOxDmAkTJshkMmno0KGWtkuXLmngwIHy8fGRu7u7OnfurLS0NNsVCQAAAAAAirxiHcJs27ZN8+fPV7Vq1azahw0bpq+//lqff/651q9fr2PHjqlTp042qhIAAAAAANwPim0Ik56erp49e+q9995TyZIlLe3nzp3TBx98oKlTp6pFixaqXbu2EhIStGnTJv300082rBgAAAAAABRlxTaEGThwoFq3bq2oqCir9h07dujy5ctW7eHh4SpXrpw2b958w/4yMjJ0/vx5qxcAAAAAAEAOe1sXYAuffvqpfv75Z23bti3XsuPHj8vR0VHe3t5W7X5+fjp+/PgN+xw/frzGjh1b2KUCAAAAAID7RLEbCXP06FENGTJECxculLOzc6H1O2rUKJ07d87yOnr0aKH1DQAAAAAAir5iF8Ls2LFDJ06cUK1atWRvby97e3utX79eM2fOlL29vfz8/JSZmamzZ89abZeWliZ/f/8b9uvk5CRPT0+rFwAAAAAAQI5idzvSI488oj179li19enTR+Hh4Xr55ZcVFBQkBwcHrVmzRp07d5YkJScn68iRI2rQoIEtSgYAAAAAAPeBYhfCeHh4qGrVqlZtbm5u8vHxsbQ//fTTGj58uEqVKiVPT0+98MILatCggerXr2+LkgEAAAAAwH2g2IUw+TFt2jSVKFFCnTt3VkZGhqKjozVnzhxblwUAAAAAAIowQhhJSUlJVu+dnZ01e/ZszZ492zYFAQAAAACA+06xm5gXAAAAAADAFghhAAAAAAAADEAIAwAAAAAAYABCGAAAAAAAAAMQwgAAAAAAABiAEAYAAAAAAMAAhDAAAAAAAAAGIIQBAAAAAAAwACEMAAAAAACAAQhhAAAAAAAADEAIAwAAAAAAYABCGAAAAAAAAAMQwgAAAAAAABiAEAYAAAAAAMAAhDAAAAAAAAAGKDIhzNGjR/Xnn39a3m/dulVDhw7Vu+++a8OqAAAAAAAA8qfIhDA9evTQunXrJEnHjx/Xo48+qq1bt+q1115TfHy8jasDAAAAAAC4uSITwuzdu1cPPfSQJOmzzz5T1apVtWnTJi1cuFCJiYm2LQ4AAAAAAOAWikwIc/nyZTk5OUmSVq9erXbt2kmSwsPDlZqaasvSAAAAAAAAbqnIhDBVqlTRvHnztGHDBq1atUoxMTGSpGPHjsnHx8fG1QEAAAAAANxckQlhJk6cqPnz56tZs2bq3r27qlevLklavny55TYlAAAAAACAe5W9rQvIr2bNmunUqVM6f/68SpYsaWnv37+/XF1dbVgZAAAAAADArRWZkTCSZDabtWPHDs2fP19///23JMnR0ZEQBgAAAAAA3POKzEiYP/74QzExMTpy5IgyMjL06KOPysPDQxMnTlRGRobmzZtn6xIBAAAAAABuqMiMhBkyZIjq1KmjM2fOyMXFxdLesWNHrVmzxoaVAQAAAAAA3FqRGQmzYcMGbdq0SY6OjlbtISEh+r//+z8bVQUAAAAAAJA/RWYkTHZ2trKysnK1//nnn/Lw8LBBRQAAAAAAAPlXZEKYli1bavr06Zb3JpNJ6enpGjNmjB577DHbFQYAAAAAAJAPReZ2pClTpig6OlqVK1fWpUuX1KNHDx04cEClS5fWJ598YuvyAAAAAAAAbqrIhDBly5bVrl279Omnn2r37t1KT0/X008/rZ49e1pN1AsAAAAAAHAvKjIhjCTZ29vrySeftHUZAAAAAAAABVZkQpiPPvropst79eplUCUAAAAAAAAFV2RCmCFDhli9v3z5si5evChHR0e5uroSwgAAAAAAgHtakXk60pkzZ6xe6enpSk5OVuPGjZmYFwAAAAAA3POKTAiTl9DQUE2YMCHXKBkAAAAAAIB7TZEOYaSrk/UeO3bM1mUAAAAAAADcVJGZE2b58uVW781ms1JTUzVr1iw1atTIRlUBAAAAAADkT5EJYTp06GD13mQyydfXVy1atNCUKVNsUxQAAAAAAEA+FZkQJjs729YlAAAAAAAA3LYiE8IAAAAAuDOzn11r6xKKtIHzWti6BABF3D0dwgwfPjzf606dOvUuVgIAAAAAAHBn7ukQ5pdffsnXeiaT6S5XAgAAAAAAcGfu6RBm3bp1ti4BAAAAAACgUJSwdQEAAAAAAADFwT09EuZ627dv12effaYjR44oMzPTatmXX35po6oAAAAAAABurciMhPn000/VsGFD7du3T0uXLtXly5f166+/au3atfLy8rJ1eQAAAAAAADdVZEKYcePGadq0afr666/l6OioGTNmaP/+/erSpYvKlStn6/IAAAAAAABuqsiEMCkpKWrdurUkydHRURcuXJDJZNKwYcP07rvv2rg6AAAAAACAmysyIUzJkiX1999/S5IeeOAB7d27V5J09uxZXbx40ZalAQAAAAAA3NI9H8LkhC1NmjTRqlWrJElPPPGEhgwZon79+ql79+565JFHbFkiAAAAAADALd3zT0eqVq2a6tatqw4dOuiJJ56QJL322mtycHDQpk2b1LlzZ73++us2rhIAAAAAAODm7vkQZv369UpISND48eP19ttvq3PnznrmmWf0yiuv2Lo0AAAAAACAfLvnb0d6+OGH9eGHHyo1NVXvvPOODh8+rKZNm6pSpUqaOHGijh8/busSAQAAAAAAbumeD2FyuLm5qU+fPlq/fr1+++03PfHEE5o9e7bKlSundu3a2bo8AAAAAACAmyoyIcy1KlasqFdffVWvv/66PDw89O2339q6JAAAAAAAgJu65+eEud4PP/ygDz/8UF988YVKlCihLl266Omnn7Z1WQAAAAAAADdVJEKYY8eOKTExUYmJiTp48KAaNmyomTNnqkuXLnJzc7N1eQAAAAAAALd0z4cwrVq10urVq1W6dGn16tVLffv2VVhYmK3LAgAAAAAAKJB7PoRxcHDQkiVL1KZNG9nZ2dm6HAAAAAAAgNtyz4cwy5cvt3UJAAAAAAAAd6xIPh0JAAAAAACgqCGEAQAAAAAAMAAhDAAAAAAAgAGKZQgzd+5cVatWTZ6envL09FSDBg30/fffW5ZfunRJAwcOlI+Pj9zd3dW5c2elpaXZsGIAAAAAAFDUFcsQpmzZspowYYJ27Nih7du3q0WLFmrfvr1+/fVXSdKwYcP09ddf6/PPP9f69et17NgxderUycZVAwAAAACAouyefzrS3dC2bVur92+//bbmzp2rn376SWXLltUHH3ygRYsWqUWLFpKkhIQERURE6KefflL9+vVtUTIAAAAAACjiiuVImGtlZWXp008/1YULF9SgQQPt2LFDly9fVlRUlGWd8PBwlStXTps3b75hPxkZGTp//rzVCwAAAAAAIEexDWH27Nkjd3d3OTk56dlnn9XSpUtVuXJlHT9+XI6OjvL29rZa38/PT8ePH79hf+PHj5eXl5flFRQUdJePAAAAAAAAFCXFNoQJCwvTzp07tWXLFj333HPq3bu3/vvf/952f6NGjdK5c+csr6NHjxZitQAAAAAAoKgrlnPCSJKjo6MqVqwoSapdu7a2bdumGTNmqGvXrsrMzNTZs2etRsOkpaXJ39//hv05OTnJycnpbpcNAAAAAACKqGI7EuZ62dnZysjIUO3ateXg4KA1a9ZYliUnJ+vIkSNq0KCBDSsEAAAAAABFWbEcCTNq1Ci1atVK5cqV099//61FixYpKSlJK1eulJeXl55++mkNHz5cpUqVkqenp1544QU1aNCAJyMBAAAAAIDbVixDmBMnTqhXr15KTU2Vl5eXqlWrppUrV+rRRx+VJE2bNk0lSpRQ586dlZGRoejoaM2ZM8fGVQMAAAAAgKKsWIYwH3zwwU2XOzs7a/bs2Zo9e7ZBFQEAAAAAgPsdc8IAAAAAAAAYgBAGAAAAAADAAIQwAAAAAAAABiiWc8IgbyGvfGvrEoqswxNa27oEAAAAAMA9jpEwAAAAAAAABiCEAQAAAAAAMAAhDAAAAAAAgAEIYQAAAAAAAAxACAMAAAAAAGAAQhgAAAAAAAADEMIAAAAAAAAYgBAGAAAAAADAAIQwAAAAAAAABiCEAQAAAAAAMAAhDAAAAAAAgAEIYQAAAAAAAAxACAMAAAAAAGAAQhgAAAAAAAADEMIAAAAAAAAYgBAGAAAAAADAAIQwAAAAAAAABiCEAQAAAAAAMAAhDAAAAAAAgAEIYQAAAAAAAAxACAMAAAAAAGAAQhgAAAAAAAADEMIAAAAAAAAYgBAGAAAAAADAAIQwAAAAAAAABiCEAQAAAAAAMAAhDAAAAAAAgAEIYQAAAAAAAAxACAMAAAAAAGAAQhgAAAAAAAADEMIAAAAAAAAYgBAGAAAAAADAAIQwAAAAAAAABiCEAQAAAAAAMAAhDAAAAAAAgAEIYQAAAAAAAAxACAMAAAAAAGAAQhgAAAAAAAADEMIAAAAAAAAYgBAGAAAAAADAAIQwAAAAAAAABiCEAQAAAAAAMAAhDAAAAAAAgAEIYQAAAAAAAAxACAMAAAAAAGAAQhgAAAAAAAADEMIAAAAAAAAYgBAGAAAAAADAAIQwAAAAAAAABiCEAQAAAAAAMAAhDAAAAAAAgAEIYQAAAAAAAAxACAMAAAAAAGAAQhgAAAAAAAADEMIAAAAAAAAYwN7WBQAAABQ3+8IjbF1CkRWxf5+tSwAA4LYxEgYAAAAAAMAAhDAAAAAAAAAGKJYhzPjx41W3bl15eHioTJky6tChg5KTk63WuXTpkgYOHCgfHx+5u7urc+fOSktLs1HFAAAAAACgqCuWIcz69es1cOBA/fTTT1q1apUuX76sli1b6sKFC5Z1hg0bpq+//lqff/651q9fr2PHjqlTp042rBoAAAAAABRlxXJi3hUrVli9T0xMVJkyZbRjxw41adJE586d0wcffKBFixapRYsWkqSEhARFRETop59+Uv369W1RNgAAAAAAKMKK5UiY6507d06SVKpUKUnSjh07dPnyZUVFRVnWCQ8PV7ly5bR582ab1AgAAAAAAIq2YjkS5lrZ2dkaOnSoGjVqpKpVq0qSjh8/LkdHR3l7e1ut6+fnp+PHj+fZT0ZGhjIyMizvz58/f9dqBgAAAAAARU+xHwkzcOBA7d27V59++ukd9TN+/Hh5eXlZXkFBQYVUIQAAAAAAuB8U6xBm0KBB+uabb7Ru3TqVLVvW0u7v76/MzEydPXvWav20tDT5+/vn2deoUaN07tw5y+vo0aN3s3QAAAAAAFDEFMsQxmw2a9CgQVq6dKnWrl2r8uXLWy2vXbu2HBwctGbNGktbcnKyjhw5ogYNGuTZp5OTkzw9Pa1eAAAAAAAAOYrlnDADBw7UokWL9NVXX8nDw8Myz4uXl5dcXFzk5eWlp59+WsOHD1epUqXk6empF154QQ0aNODJSAAAAAAA4LYUyxBm7ty5kqRmzZpZtSckJCg2NlaSNG3aNJUoUUKdO3dWRkaGoqOjNWfOHIMrBQAAAAAA94tiGcKYzeZbruPs7KzZs2dr9uzZBlQEAAAAAADud8VyThgAAAAAAACjEcIAAAAAAAAYgBAGAAAAAADAAIQwAAAAAAAABiCEAQAAAAAAMAAhDAAAAAAAgAEIYQAAAAAAAAxACAMAAAAAAGAAQhgAAAAAAAADEMIAAAAAAAAYgBAGAAAAAADAAIQwAAAAAAAABiCEAQAAAAAAMAAhDAAAAAAAgAEIYQAAAAAAAAxACAMAAAAAAGAAQhgAAAAAAAADEMIAAAAAAAAYgBAGAAAAAADAAIQwAAAAAAAABiCEAQAAAAAAMAAhDAAAAAAAgAEIYQAAAAAAAAxACAMAAAAAAGAAQhgAAAAAAAADEMIAAAAAAAAYgBAGAAAAAADAAIQwAAAAAAAABiCEAQAAAAAAMAAhDAAAAAAAgAEIYQAAAAAAAAxgb+sCAEBxXrauoOiKO2frCgAAAADkEyNhAAAAAAAADEAIAwAAAAAAYABCGAAAAAAAAAMQwgAAAAAAABiAEAYAAAAAAMAAhDAAAAAAAAAGIIQBAAAAAAAwACEMAAAAAACAAQhhAAAAAAAADEAIAwAAAAAAYABCGAAAAAAAAAMQwgAAAAAAABiAEAYAAAAAAMAAhDAAAAAAAAAGIIQBAAAAAAAwACEMAAAAAACAAQhhAAAAAAAADEAIAwAAAAAAYABCGAAAAAAAAAMQwgAAAAAAABiAEAYAAAAAAMAAhDAAAAAAAAAGIIQBAAAAAAAwACEMAAAAAACAAQhhAAAAAAAADEAIAwAAAAAAYABCGAAAAAAAAAMQwgAAAAAAABiAEAYAAAAAAMAAhDAAAAAAAAAGIIQBAAAAAAAwQLEMYX744Qe1bdtWgYGBMplMWrZsmdVys9ms0aNHKyAgQC4uLoqKitKBAwdsUywAAAAAALgvFMsQ5sKFC6pevbpmz56d5/JJkyZp5syZmjdvnrZs2SI3NzdFR0fr0qVLBlcKAAAAAADuF/a2LsAWWrVqpVatWuW5zGw2a/r06Xr99dfVvn17SdJHH30kPz8/LVu2TN26dTOyVAAAAAAAcJ8oliNhbubQoUM6fvy4oqKiLG1eXl6qV6+eNm/ebMPKAAAAAABAUVYsR8LczPHjxyVJfn5+Vu1+fn6WZXnJyMhQRkaG5f358+fvToEAAAAAAKBIYiRMIRk/fry8vLwsr6CgIFuXBAAAAAAA7iGEMNfx9/eXJKWlpVm1p6WlWZblZdSoUTp37pzldfTo0btaJwAAAAAAKFoIYa5Tvnx5+fv7a82aNZa28+fPa8uWLWrQoMENt3NycpKnp6fVCwAAAAAAIEexnBMmPT1dBw8etLw/dOiQdu7cqVKlSqlcuXIaOnSo3nrrLYWGhqp8+fJ64403FBgYqA4dOtiuaAAAAAAAUKQVyxBm+/btat68ueX98OHDJUm9e/dWYmKiXnrpJV24cEH9+/fX2bNn1bhxY61YsULOzs62KhkAAAAAABRxxTKEadasmcxm8w2Xm0wmxcfHKz4+3sCqAAAAAADA/Yw5YQAAAAAAAAxACAMAAAAAAGAAQhgAAAAAAAADEMIAAAAAAAAYgBAGAAAAAADAAIQwAAAAAAAABiCEAQAAAAAAMAAhDAAAAAAAgAEIYQAAAAAAAAxACAMAAAAAAGAAQhgAAAAAAAADEMIAAAAAAAAYgBAGAAAAAADAAIQwAAAAAAAABiCEAQAAAAAAMAAhDAAAAAAAgAEIYQAAAAAAAAxACAMAAAAAAGAAQhgAAAAAAAADEMIAAAAAAAAYgBAGAAAAAADAAIQwAAAAAAAABiCEAQAAAAAAMAAhDAAAAAAAgAEIYQAAAAAAAAxACAMAAAAAAGAAQhgAAAAAAAADEMIAAAAAAAAYgBAGAAAAAADAAIQwAAAAAAAABiCEAQAAAAAAMAAhDAAAAAAAgAEIYQAAAAAAAAxACAMAAAAAAGAAQhgAAAAAAAADEMIAAAAAAAAYgBAGAAAAAADAAIQwAAAAAAAABiCEAQAAAAAAMAAhDAAAAAAAgAEIYQAAAAAAAAxACAMAAAAAAGAAQhgAAAAAAAADEMIAAAAAAAAYgBAGAAAAAADAAIQwAAAAAAAABiCEAQAAAAAAMAAhDAAAAAAAgAEIYQAAAAAAAAxACAMAAAAAAGAAQhgAAAAAAAADEMIAAAAAAAAYgBAGAAAAAADAAIQwAAAAAAAABiCEAQAAAAAAMAAhDAAAAAAAgAEIYQAAAAAAAAxACAMAAAAAAGAAQhgAAAAAAAADEMIAAAAAAAAYgBAGAAAAAADAAIQwAAAAAAAABrC3dQEAANhK5IJIW5dQZO3pvcfWJQAAABQ5jIS5idmzZyskJETOzs6qV6+etm7dauuSAAAAAABAEUUIcwOLFy/W8OHDNWbMGP3888+qXr26oqOjdeLECVuXBgAAAAAAiiBCmBuYOnWq+vXrpz59+qhy5cqaN2+eXF1d9eGHH9q6NAAAAAAAUAQRwuQhMzNTO3bsUFRUlKWtRIkSioqK0ubNm21YGQAAAAAAKKqYmDcPp06dUlZWlvz8/Kza/fz8tH///jy3ycjIUEZGhuX9uXPnJEnnz5+/e4UWsuyMi7YuocgqSp/zPSnDbOsKii6uvTuS9U+WrUsosvh7786kZ3Ht3S6uvTvzT+YFW5dQpHH93b5Lly/buoQirahcezl1ms38//5GCGEKyfjx4zV27Nhc7UFBQTaoBkbzmm7rClBsTfCydQUoprye49qDjXhx7cF2XkywdQUorl5fWrT+7vv777/lxd/XeSKEyUPp0qVlZ2entLQ0q/a0tDT5+/vnuc2oUaM0fPhwy/vs7GydPn1aPj4+MplMd7Xe+9358+cVFBSko0ePytPT09bloBjh2oMtcf3BVrj2YCtce7AVrr3CYzab9ffffyswMNDWpdyzCGHy4OjoqNq1a2vNmjXq0KGDpKuhypo1azRo0KA8t3FycpKTk5NVm7e3912utHjx9PTkL0XYBNcebInrD7bCtQdb4dqDrXDtFQ5GwNwcIcwNDB8+XL1791adOnX00EMPafr06bpw4YL69Olj69IAAAAAAEARRAhzA127dtXJkyc1evRoHT9+XDVq1NCKFStyTdYLAAAAAACQH4QwNzFo0KAb3n4E4zg5OWnMmDG5bvcC7jauPdgS1x9shWsPtsK1B1vh2oORTGaeHQUAAAAAAHDXlbB1AQAAAAAAAMUBIQwAAAAAAIABCGFw2w4fPiyTyaSdO3fauhSL/fv3q379+nJ2dlaNGjVsUkNISIimT59uk30XR1yHKC5MJpOWLVtm6zJwn2nWrJmGDh1q0xruxb/Hi6v77f8wsbGx6tChQ4G2iYuLk8lkkslkuuNzkZiYaOnL1j9nKJi4uDj5+fndtX97r/9ZK4z93M71DtsghCnCYmNjZTKZNGHCBKv2ZcuWyWQy2agq2xozZozc3NyUnJysNWvW5LkO561wcT5zu9V1mPMfshu94uLijC+6GDp58qSee+45lStXTk5OTvL391d0dLQ2btxo07ri4uII74qYnL8Hr3/FxMTYujSLpKQkmUwmnT171qr9yy+/1JtvvnnX9nvtF9obvYKCgpSamqqqVavetTruN9dec46OjqpYsaLi4+N15cqVfG2fmJgob2/vQqvF1l/8CjvIq1KlilJTU9W/f/876qdr165KTU1VgwYN7rimO/3Mbamo/RJh3759Gjt2rObPn6/U1FS1atUq1zo519z1ryeffDJf+9i2bdsdX18FcaN/p3JeISEhd9S3rf8OKGp4OlIR5+zsrIkTJ2rAgAEqWbKkrcspFJmZmXJ0dLytbVNSUtS6dWsFBwffdL378bzZ0v14Pu/mdZiammr58+LFizV69GglJydb2tzd3Q2rtTjr3LmzMjMztWDBAlWoUEFpaWlas2aN/vrrL1uXhiIoJiZGCQkJVm1F4SkbpUqVuqv9jxw5Us8++6zlfd26ddW/f3/169fP0mZnZyd/f/+7Wsf9KOeay8jI0HfffaeBAwfKwcFBo0aNsnVpRZ69vX2hXJMuLi5ycXEptH+jC/Mzz8rKkslkUokS/E7+eikpKZKk9u3b3/IXiqtXr1aVKlUs711cXPK1D19f39sv8DbMmDHD6hemAQEBSkhIsPyywM7OztB6ijt+6oq4qKgo+fv7a/z48TdcJ6/fqk6fPt0q8cxJMMeNGyc/Pz95e3tb0vUXX3xRpUqVUtmyZXP9B1O6eutFw4YN5ezsrKpVq2r9+vVWy/fu3atWrVrJ3d1dfn5+euqpp3Tq1CnL8mbNmmnQoEEaOnSoSpcurejo6DyPIzs7W/Hx8SpbtqycnJxUo0YNrVixwrLcZDJpx44dio+Pv+VogvycN0n64osvVKVKFTk5OSkkJERTpkyxWn7ixAm1bdtWLi4uKl++vBYuXJirj7Nnz+qZZ56Rr6+vPD091aJFC+3atcuyfNeuXWrevLk8PDzk6emp2rVra/v27Tet617DdViw69Df39/y8vLykslksryfN2+eGjdunK/z9PbbbyswMFBhYWGW38h8+eWXat68uVxdXVW9enVt3rzZst0ff/yhtm3bqmTJknJzc1OVKlX03Xff5Xmc97uzZ89qw4YNmjhxopo3b67g4GA99NBDGjVqlNq1ayfp6mc5f/58tWnTRq6uroqIiNDmzZt18OBBNWvWTG5ubmrYsKHlP2s55s6dqwcffFCOjo4KCwvTxx9/bLX8yJEjat++vdzd3eXp6akuXbooLS1N0tXfTo8dO1a7du2y/HYqMTHRsu2pU6fUsWNHubq6KjQ0VMuXL7csyxnpsGbNGtWpU0eurq5q2LChVcAnSV999ZVq1aolZ2dnVahQQWPHjrX8JtVsNisuLs4yOigwMFCDBw+2bDtnzhyFhobK2dlZfn5+evzxx+/8w7hP5IymuvaVE0onJSXJ0dFRGzZssKw/adIklSlTxvLZHz16VF26dJG3t7dKlSql9u3b6/Dhw1b7+PDDDy3/JgUEBGjQoEGS8h4FcPbsWZlMJiUlJenw4cNq3ry5JKlkyZIymUyKjY2VlPt2pDNnzqhXr14qWbKkXF1d1apVKx04cMCyPGcExcqVKxURESF3d3fFxMRYhcvXcnd3tzondnZ28vDwsGq7vv6ca3nlypWqWbOmXFxc1KJFC504cULff/+9IiIi5OnpqR49eujixYuWfWVnZ2v8+PEqX768XFxcVL16dS1ZsiT/H2IRk3PNBQcH67nnnlNUVJTl74SpU6cqMjJSbm5uCgoK0vPPP6/09HRJV89vnz59dO7cuTxHYF68eFF9+/aVh4eHypUrp3ffffeO6szPv7+DBw/WSy+9pFKlSsnf3z/Xv5379+9X48aN5ezsrMqVK2v16tVWoyvKly8vSapZs6ZMJpOaNWtmtf3kyZMVEBAgHx8fDRw4UJcvXy7wcdzuvwmF6WafeUZGhkaOHKkHHnhAbm5uqlevnpKSkizb5vzsLl++XJUrV5aTk5OOHDmijIwMvfzyywoKCpKTk5MqVqyoDz74wLLdnX5+Of9/6dixo9WIi5SUFLVv315+fn5yd3dX3bp1tXr1aqvjTU1NVevWrS3/z160aFGu23hu9f/svOzZs0ctWrSQi4uLfHx81L9/f8vPR1xcnNq2bStJKlGixC1DGB8fn1z/r8vPsd3q1r9b/ZuQlZWl4cOHy9vbWz4+PnrppZd0s4cee3l5WdUpSd7e3pb3aWlpN/2clyxZosjISMs5i4qK0oULFxQXF6cFCxboq6++svx9kpSUpMzMTA0aNEgBAQFydnZWcHDwLb93FSeEMEWcnZ2dxo0bp3feeUd//vnnHfW1du1aHTt2TD/88IOmTp2qMWPGqE2bNipZsqS2bNmiZ599VgMGDMi1nxdffFEjRozQL7/8ogYNGqht27aW3ySfPXtWLVq0UM2aNbV9+3atWLFCaWlp6tKli1UfCxYskKOjozZu3Kh58+blWd+MGTM0ZcoUTZ48Wbt371Z0dLTatWtn+c9hamqqqlSpohEjRig1NVUjR4684bHm57zt2LFDXbp0Ubdu3bRnzx7FxcXpjTfesPpCFBsbq6NHj2rdunVasmSJ5syZoxMnTlj188QTT1j+47hjxw7VqlVLjzzyiE6fPi1J6tmzp8qWLatt27Zpx44deuWVV+Tg4HDD2u9FXIe3dx3eiTVr1ig5OVmrVq3SN998Y2l/7bXXNHLkSO3cuVOVKlVS9+7dLV+wBw4cqIyMDP3www/as2ePJk6cWOBRN/cLd3d3ubu7a9myZcrIyLjhem+++aZ69eqlnTt3Kjw8XD169NCAAQM0atQobd++XWaz2fJFWJKWLl2qIUOGaMSIEdq7d68GDBigPn36aN26dZKufkls3769Tp8+rfXr12vVqlX6/fff1bVrV0lXh66PGDHCMhQ+NTXVskySxo4dqy5dumj37t167LHH1LNnT8vfJTlee+01TZkyRdu3b5f9/7d372FVVXkfwL8HGOIuRkjgEDxeDvdIlEoozYQgHxnvmjdQEzNJTaGZfLyhZgKFGqWGWqDmeBvBYSQvgGCKBogCZscTIIozYqWYzdG8Hdb7h+/Zw5bb4Vrq9/M8PI9n733WXnvttffa/s5aaxsZYcqUKdK6I0eOIDQ0FLNnz8b333+PxMREJCcnY/ny5QDuB55XrVqFxMRElJaWYs+ePfDy8gIAnDhxArNmzcLSpUuhVquxf/9+9OvXr5Vn4vGgC3RMnDgR169fx6lTp7Bw4UJs3LgRdnZ2uHv3LoKCgmBpaYkjR44gNzdXCm7cuXMHwP3gXkREBKZNm4bTp08jLS0NPXr00Gv/jo6O2L17NwBArVajqqoKn3zySb3bTpo0CSdOnEBaWhqOHz8OIQQGDRok+0/rzZs38fHHH2PLli345ptvUFlZ2S73uujoaHz22Wc4duyY9B+S1atX4+9//zvS09Nx8OBBfPrpp9L2K1aswObNm/H555/jzJkzmDNnDiZMmFAnKP+oMjU1leqLgYEBEhIScObMGWzatAmHDh3CX//6VwCAn58fVq9eDSsrK+k+U/v8xcfHo0+fPjh16hRmzJiBt99+u04wV1/NaX/Nzc2Rl5eHuLg4LF26FBkZGQDu/2dz6NChMDMzQ15eHtavX4/58+fLvp+fnw/gfq+EqqoqpKSkSOuys7NRXl6O7OxsbNq0CcnJybJnueZobpvQ3mqf83feeQfHjx/H9u3bUVJSglGjRiE4OFgWRL158yZiY2OxceNGnDlzBl26dEFoaCi2bduGhIQEqFQqJCYmSs8GbXH+CgoKAABJSUmoqqqSPms0GgwaNAhZWVk4deoUgoODERISgsrKSind0NBQXLp0CTk5Odi9ezfWr1/f7OfsB924cQNBQUHo3LkzCgoKsGvXLmRmZkrnLSoqSvqxT3d9NJc+x9YYfdqE+Ph4JCcn48svv8TRo0dRXV2N1NTUZucVaPo8V1VVYezYsZgyZQpUKhVycnIwfPhwCCEQFRWF0aNHS8H4qqoq+Pn5ISEhAWlpadi5cyfUajW2bt3aqiFPjxxBD62wsDAxZMgQIYQQL774opgyZYoQQojU1FRR+9QuXrxYeHt7y767atUq4eTkJEvLyclJaLVaaZmLi4t4+eWXpc/37t0T5ubmYtu2bUIIISoqKgQAERMTI21z9+5d8ec//1nExsYKIYRYtmyZeO2112T7vnjxogAg1Gq1EEKI/v37i169ejV5vA4ODmL58uWyZb6+vmLGjBnSZ29vb7F48eJG09G33MaNGycCAwNl333vvfeEu7u7EEIItVotAIj8/HxpvUqlEgDEqlWrhBBCHDlyRFhZWYlbt27J0unevbtITEwUQghhaWkpkpOTmzj6Py7Ww5bVQ52kpCTRqVMn6bO+5WRnZydu374tLdOVw8aNG6VlZ86cEQCESqUSQgjh5eUloqOj9crX4+Af//iH6Ny5szAxMRF+fn5i3rx5ori4WFoPQCxYsED6fPz4cQFAfPHFF9Kybdu2CRMTE+mzn5+fCA8Pl+1n1KhRYtCgQUIIIQ4ePCgMDQ1FZWWltF53nnT3kvrqQH350Wg0AoDYt2+fEEKI7OxsAUBkZmZK26SnpwsA4rfffhNCCDFw4EDx4YcfytLdsmWLsLe3F0IIER8fL5RKpbhz506d/e/evVtYWVmJX3/9tc66x11YWJgwNDQU5ubmsr/a94rbt2+L5557TowePVq4u7vL6smWLVuEi4uLqKmpkW1vamoqDhw4IIS4f++ZP39+vfvXXf+nTp2Sll27dk0AENnZ2UKI/9WPa9euyb7bv39/MXv2bCGEED/88IMAIHJzc6X1V65cEaampmLnzp1CiPv3LACirKxM2mbNmjXCzs5Or7JycnKS2siG8l9fXV6xYoUAIMrLy6Vlb731lggKChJCCHHr1i1hZmYmjh07Jkv7zTffFGPHjtUrbw+T2m1vTU2NyMjIEE888YSIioqqd/tdu3YJGxsb6fODbY+Ok5OTmDBhgvS5pqZGdOnSRaxbt06vvDxI3/b3pZdekm3j6+sr/va3vwkhhNi3b58wMjISVVVV0vqMjAwBQKSmpgoh6r8GdHlzcnIS9+7dk5aNGjVKjBkzpsHj0fcerE+boFP7Omupxs75hQsXhKGhofjPf/4j+87AgQPFvHnzhBD/u3aLioqk9bpn2YyMjHr32RbnTwghO1eN8fDwEJ9++qkQ4n/P1AUFBdL60tLSZj9nP2j9+vWic+fOQqPRSMvS09OFgYGBuHz5shCi7jNsfXR1ztTUVHbfP3nyZJPHJkTde2HtMtKnTbC3txdxcXHSet2zb0PX4oNq76+p81xYWCgAiPPnz9ebVn33gJkzZ4pXX31Vdgz0P+wJ84iIjY3Fpk2boFKpWpyGh4eHbFyonZ2d9AsocL+3g42NTZ0IdO3JxoyMjNCnTx8pH8XFxcjOzpZ+dbawsICrqysAyLpr9u7du9G8/frrr7h06RL8/f1ly/39/Vt1zI2Vm0qlqnd/paWl0Gq1UKlUMDIykuXd1dVVNtFdcXExNBoNbGxsZGVQUVEhHf/cuXMxdepUBAQEICYmpl27sbY31sOO4+XlVe8Y82effVb6t729PQBIZTVr1ix88MEH8Pf3x+LFi1FSUtIxmf2DGjFiBC5duoS0tDQEBwcjJycHPj4+sl9Ia5ennZ0dAMjqo52dHW7duoVff/0VQMP3DV39UKlUcHR0hKOjo7Te3d0d1tbWetWh2vkxNzeHlZVVnWuhsTpQXFyMpUuXyq6F8PBwVFVV4ebNmxg1ahR+++03dOvWDeHh4UhNTZV6UgUGBsLJyQndunXDxIkTsXXrVtlQkMfdgAEDUFRUJPurPReKsbExtm7dit27d+PWrVtYtWqVtK64uBhlZWWwtLSUzsuTTz6JW7duoby8HD/99BMuXbqEgQMHtusx6Nq1F154QVpmY2MDFxcXWf00MzND9+7dpc/29vZ16mFbePD6MzMzQ7du3WTLdPstKyvDzZs3ERgYKKvfmzdvfqjb1cbs3bsXFhYWMDExweuvv44xY8ZIw0AyMzMxcOBAdO3aFZaWlpg4cSKuXr2q1zVbu9x1w2Vben71bX9r7xOQ1ym1Wg1HR0fZHC3PP/+83nnw8PCQzXfRmvra3DahrTV0zk+fPg2tVgulUikr68OHD8vK2djYWHYMRUVFMDQ0RP/+/evdX1ucv4ZoNBpERUXBzc0N1tbWsLCwgEqlknqLqNVqGBkZwcfHR/pOjx49ZHMP6vOc/SCVSgVvb2+Ym5tLy/z9/VFTU9OiHl87duyQ3ffd3d2bPLamNNUmXL9+HVVVVbJ7te7ZtyWaOs/e3t4YOHAgvLy8MGrUKGzYsAHXrl1rNM1JkyahqKgILi4umDVrFg4ePNiivD2qODHvI6Jfv34ICgrCvHnzpHHeOgYGBnXGCNY3FvbBITAKhaLeZTU1NXrnS6PRICQkBLGxsXXW6f5zAEB2I+xIjZVbW9BoNLC3t5eNydXRBWuio6Mxbtw4pKenY9++fVi8eDG2b9+OYcOGtXl+2hvrYevpW04N5bV2WenGMevKaurUqQgKCpK68a9YsQLx8fGYOXNmW2X/oWNiYoLAwEAEBgZi4cKFmDp1KhYvXizV3/rKs7Eybm/6XAuN5U+j0WDJkiUYPnx4nbRNTEzg6OgItVqNzMxMZGRkYMaMGfjoo49w+PBhWFpa4uTJk8jJycHBgwexaNEiREdHo6CgoM3esvIwMzc3b3J40LFjxwAA1dXVqK6ulq5jjUaD3r171zuvmK2tbZMTZ+rW1753tGTOC33VVw8fvG+19X6aagt08zmkp6eja9eusu0ehgmSW2LAgAFYt24djI2N4eDgACOj+4/158+fx+DBg/H2229j+fLlePLJJ3H06FG8+eabuHPnDszMzBpNt7Vtbm36tr9tuc8HtWXav3eb0NA512g0MDQ0RGFhYZ0JVmsPOzY1NZXNcdLUJLLtef6ioqKQkZGBjz/+GD169ICpqSlGjhwpDbfRhz7P2e3N0dGxzr1/9uzZrTq2ptqEttbUeTY0NERGRgaOHTsmDQOdP38+8vLypPmYHuTj44OKigrs27cPmZmZGD16NAICAh7pebqag0GYR0hMTAyee+45uLi4yJbb2tri8uXLEEJIN962eoUfAHz77bfSvAD37t1DYWGhNK7Sx8cHu3fvhrOzs9RQtISVlRUcHByQm5sri9bn5uY269eQ+jRUbm5ubnVeVZubmwulUglDQ0O4urpKx+vr6wvgftS+9us/fXx8cPnyZRgZGTU6DlKpVEKpVGLOnDkYO3YskpKSHsogDMB62FrtXU6Ojo6YPn06pk+fjnnz5mHDhg2PdRDmQe7u7q16jabuvhEWFiYty83Nhbu7u7T+4sWLuHjxotQb5vvvv8cvv/wibWNsbAytVtvyg2iEj48P1Gp1o8ECU1NThISEICQkBBEREXB1dcXp06fh4+MDIyMjBAQEICAgAIsXL4a1tTUOHTpUb1CH5MrLyzFnzhxs2LABO3bsQFhYGDIzM2FgYAAfHx/s2LEDXbp0gZWVVb3fd3Z2RlZWljTBbm26h/Kqqir06tULQN37hq7nXGN1y83NDffu3UNeXh78/PwAAFevXoVarZbq5x9V7YlGG/pV/1HTUOCvsLAQNTU1iI+PlwJ0O3fulG3TnveZ2tqi/XVxccHFixfx448/Sr1PdPOK6OhTvx8FDZ3zXr16QavV4qeffsLLL7+sd3peXl6oqanB4cOHERAQUGd9Wz0//elPf6pzbnJzczFp0iTpeVej0cgmnnVxccG9e/dw6tQpqadyWVmZrAeGvs/Ztbm5uSE5ORk3btyQAuG5ubkwMDCo8+zaUk0dW1P0aRPs7e2Rl5dX59m3ds+h5uyvqfOsUCjg7+8Pf39/LFq0CE5OTkhNTcXcuXMbvJ9YWVlhzJgxGDNmDEaOHIng4GBUV1e3+1v5HgYcjvQI8fLywvjx45GQkCBb/sorr+Dnn39GXFwcysvLsWbNGuzbt6/N9rtmzRqkpqbi7NmziIiIwLVr16SJICMiIlBdXY2xY8eioKAA5eXlOHDgACZPntzshvK9995DbGwsduzYAbVajffffx9FRUWYPXt2q/LfULlFRkYiKysLy5Ytww8//IBNmzbhs88+kyavc3FxQXBwMN566y3k5eWhsLAQU6dOlf2qEBAQgL59+2Lo0KE4ePAgzp8/j2PHjmH+/Pk4ceIEfvvtN7zzzjvIycnBhQsXkJubi4KCAri5ubXqmH5PrIet057l9O677+LAgQOoqKjAyZMnkZ2d/VDXtda4evUqXn31VXz11VcoKSlBRUUFdu3ahbi4OAwZMqTF6b733ntITk7GunXrUFpaipUrVyIlJUW6bwQEBEjXyMmTJ5Gfn4/Q0FD0799f6kbs7OyMiooKFBUV4cqVK41OHNxcixYtwubNm7FkyRKcOXMGKpUK27dvx4IFCwDcf3vGF198ge+++w7nzp3DV199BVNTUzg5OWHv3r1ISEhAUVERLly4gM2bN6OmpqbNHlofdrdv38bly5dlf7o3S2i1WkyYMAFBQUGYPHkykpKSUFJSIr1xb/z48XjqqacwZMgQHDlyBBUVFcjJycGsWbOkScijo6MRHx+PhIQElJaW4uTJk9KktKampnjxxRcRExMDlUqFw4cPS+dUx8nJCQqFAnv37sXPP/8s9RyprWfPnhgyZAjCw8Nx9OhRFBcXY8KECejatWurrouOYGlpiaioKMyZMwebNm1CeXm5VEabNm36vbPXoXr06IG7d+/i008/xblz57Bly5Y6k807OztDo9EgKysLV65cafXQwuvXr9cZjnfx4sU2aX8DAwPRvXt3hIWFoaSkBLm5uVL91v1Y0aVLF5iamkoTil6/fr1Vx/OwUSqVGD9+PEJDQ5GSkoKKigrk5+djxYoVSE9Pb/B7zs7OCAsLw5QpU7Bnzx7p3qML2rXV85MuiHz58mUpiNKzZ0+kpKSgqKgIxcXFGDdunKz3jKurKwICAjBt2jTk5+fj1KlTmDZtmqw3T1PP2fUZP348TExMEBYWhu+++w7Z2dmYOXMmJk6cKAX5WqupY2uKPm3C7NmzERMTgz179uDs2bOYMWOG7Ifg5mjqPOfl5eHDDz/EiRMnUFlZiZSUFPz888/SM6SzszNKSkqgVqtx5coV3L17FytXrsS2bdtw9uxZ/PDDD9i1axeefvpp9pz9fwzCPGKWLl1a5yJ3c3PD2rVrsWbNGnh7eyM/P79N32IQExODmJgYeHt74+jRo0hLS8NTTz0FAFKvAa1Wi9deew1eXl549913YW1t3WT36gfNmjULc+fORWRkJLy8vLB//36kpaWhZ8+erT6G+srNx8cHO3fuxPbt2+Hp6YlFixZh6dKlsmE2SUlJcHBwQP/+/TF8+HBMmzYNXbp0kdYrFAp8/fXX6NevHyZPngylUok33ngDFy5cgJ2dHQwNDXH16lWEhoZCqVRi9OjReP3117FkyZJWH9PvifWw5dqznLRaLSIiIuDm5obg4GAolUqsXbu2TdJ+2FhYWOCFF17AqlWr0K9fP3h6emLhwoUIDw/HZ5991uJ0hw4dik8++QQff/wxPDw8kJiYiKSkJOl1qQqFAv/85z/RuXNn9OvXDwEBAejWrRt27NghpTFixAgEBwdjwIABsLW1xbZt21p7uJKgoCDs3bsXBw8ehK+vL1588UWsWrUKTk5OAO53396wYQP8/f3x7LPPIjMzE//6179gY2MDa2trpKSk4NVXX4Wbmxs+//xzbNu2DR4eHm2Wv4fZ/v37YW9vL/vTvW5++fLluHDhAhITEwHc/wVz/fr1WLBgAYqLi2FmZoZvvvkGzzzzDIYPHw43Nze8+eabuHXrlvQraFhYGFavXo21a9fCw8MDgwcPlr315Msvv8S9e/fQu3dvvPvuu/jggw9k+evatSuWLFmC999/H3Z2dg2+wSUpKQm9e/fG4MGD0bdvXwgh8PXXXz8Ub+1btmwZFi5ciBUrVkj3ufT09Aa7yz+qvL29sXLlSsTGxsLT0xNbt26t82pYPz8/TJ8+HWPGjIGtrS3i4uJatc+cnBz06tVL9rdkyZI2aX8NDQ2xZ88eaDQa+Pr6YurUqdLbkUxMTADcnw8jISEBiYmJcHBw+MMHDdtDUlISQkNDERkZCRcXFwwdOhQFBQV45plnGv3eunXrMHLkSMyYMQOurq4IDw/HjRs3ALTd81N8fDwyMjLg6Ogo9dZbuXIlOnfuDD8/P4SEhCAoKKhOL47NmzfDzs4O/fr1w7BhwxAeHg5LS0vpvDf1nF0fMzMzHDhwANXV1fD19cXIkSMxcODAVrX9D9Ln2BqjT5sQGRmJiRMnIiwsDH379oWlpWWLe9E3dZ6trKzwzTffYNCgQVAqlViwYAHi4+Px+uuvAwDCw8Ph4uKCPn36wNbWFrm5ubC0tERcXBz69OkDX19fnD9/Hl9//XWzn7sfVQrRHoN4iYiIiIiI2kFubi5eeukllJWVySaJbgvR0dHYs2dPmw4FfuWVV/Dcc89h9erVbZbm4+jf//43HB0dpYmniR5WDEUREREREdEfVmpqKjIyMnD+/HlkZmZi2rRp8Pf3b/MAjM7p06dhYWHR6t6iW7duhYWFBY4cOdJGOXu8HDp0CGlpaaioqMCxY8fwxhtvwNnZWZoHhehhxZ4wRERERET0h7V582Z88MEHqKysxFNPPYWAgADEx8fDxsamzfele3sZcH/S606dOrU4rf/+97/48ccfAdwf7qkbJk36OXDgACIjI3Hu3DlYWlrCz88Pq1evlobQEj2sGIQhIiIiIiIiIuoAHI5ERERERERERNQBGIQhIiIiIiIiIuoADMIQEREREREREXUABmGIiIiIiIiIiDoAgzBERERERERERB2AQRgiIiJ6aOTk5EChUOCXX35pl/QnTZqEoUOHtkvaRERERAzCEBER0e/i8uXLmDlzJrp164YnnngCjo6OCAkJQVZWVoPf8fPzQ1VVFTp16gQASE5OhrW1dZvl6ZNPPkFycnKbpUdERERUm9HvnQEiIiJ6/Jw/fx7+/v6wtrbGRx99BC8vL9y9excHDhxAREQEzp49W+c7d+/ehbGxMZ5++uk2z49Wq4VCoZCCO0RERETtgT1hiIiIqMPNmDEDCoUC+fn5GDFiBJRKJTw8PDB37lx8++23AACFQoF169bhL3/5C8zNzbF8+XLZcKScnBxMnjwZ169fh0KhgEKhQHR0NADg9u3biIqKQteuXWFubo4XXngBOTk50v51PWjS0tLg7u6OJ554ApWVlXWGI+3fvx8vvfQSrK2tYWNjg8GDB6O8vLwDS4qIiIgeJQzCEBERUYeqrq7G/v37ERERAXNz8zrraw8vio6OxrBhw3D69GlMmTJFtp2fnx9Wr14NKysrVFVVoaqqClFRUQCAd955B8ePH8f27dtRUlKCUaNGITg4GKWlpdL3b968idjYWGzcuBFnzpxBly5d6uTlxo0bmDt3Lk6cOIGsrCwYGBhg2LBhqKmpaaPSICIioscJhyMRERFRhyorK4MQAq6urk1uO27cOEyePFn6fO7cOenfxsbG6NSpExQKhWyIUmVlJZKSklBZWQkHBwcAQFRUFPbv34+kpCR8+OGHAO4Pb1q7di28vb0b3P+IESNkn7/88kvY2tri+++/h6enp34HTERERPT/GIQhIiKiDiWE0HvbPn36NDv906dPQ6vVQqlUypbfvn0bNjY20mdjY2M8++yzjaZVWlqKRYsWIS8vD1euXJF6wFRWVjIIQ0RERM3GIAwRERF1qJ49e0KhUNQ7+e6D6huu1BSNRgNDQ0MUFhbC0NBQts7CwkL6t6mpKRQKRaNphYSEwMnJCRs2bICDgwNqamrg6emJO3fuNDtfRERERAzCEBERUYd68sknERQUhDVr1mDWrFl1Ai2//PKL3q+dNjY2hlarlS3r1asXtFotfvrpJ7z88sstzufVq1ehVquxYcMGKZ2jR4+2OD0iIiIiTsxLREREHW7NmjXQarV4/vnnsXv3bpSWlkKlUiEhIQF9+/bVOx1nZ2doNBpkZWXhypUruHnzJpRKJcaPH4/Q0FCkpKSgoqIC+fn5WLFiBdLT0/VOu3PnzrCxscH69etRVlaGQ4cOYe7cuS05XCIiIiIADMIQERHR76Bbt244efIkBgwYgMjISHh6eiIwMBBZWVlYt26d3un4+flh+vTpGDNmDGxtbREXFwcASEpKQmhoKCIjI+Hi4oKhQ4eioKAAzzzzjN5pGxgYYPv27SgsLISnpyfmzJmDjz76qNnHSkRERKSjEM2ZHY+IiIiIiIiIiFqEPWGIiIiIiIiIiDoAgzBERERERERERB2AQRgiIiIiIiIiog7AIAwRERERERERUQdgEIaIiIiIiIiIqAMwCENERERERERE1AEYhCEiIiIiIiIi6gAMwhARERERERERdQAGYYiIiIiIiIiIOgCDMEREREREREREHYBBGCIiIiIiIiKiDsAgDBERERERERFRB2AQhoiIiIiIiIioAzAIQ0RERERERETUARiEISIiIiIiIiLqAAzCEBERERERERF1AAZhiIiIiIiIiIg6wP8BUpzkU6Xh28oAAAAASUVORK5CYII=;" vertex="1" parent="1">
          <mxGeometry x="20" y="249" width="1121" height="602" as="geometry" />
        </mxCell>
        <mxCell id="el2C2z39i963WL26IB6a-2" value="" style="rounded=1;whiteSpace=wrap;html=1;" vertex="1" parent="1">
          <mxGeometry y="189" width="1400" height="60" as="geometry" />
        </mxCell>
      </root>
    </mxGraphModel>
  </diagram>
</mxfile>
